<?xml version="1.0" encoding="UTF-8" standalone="no"?>
<!-- Created with Inkscape (http://www.inkscape.org/) -->

<svg
   width="105.59824mm"
   height="108.59505mm"
   viewBox="0 0 105.59825 108.59504"
   version="1.1"
   id="svg1"
   xml:space="preserve"
   inkscape:version="1.4.2 (2aeb623e1d, 2025-05-12)"
   sodipodi:docname="files.svg"
   xmlns:inkscape="http://www.inkscape.org/namespaces/inkscape"
   xmlns:sodipodi="http://sodipodi.sourceforge.net/DTD/sodipodi-0.dtd"
   xmlns="http://www.w3.org/2000/svg"
   xmlns:svg="http://www.w3.org/2000/svg"><sodipodi:namedview
     id="namedview1"
     pagecolor="#ffffff"
     bordercolor="#000000"
     borderopacity="0.25"
     inkscape:showpageshadow="2"
     inkscape:pageopacity="0.0"
     inkscape:pagecheckerboard="0"
     inkscape:deskcolor="#d1d1d1"
     inkscape:document-units="mm"
     inkscape:zoom="3.3549523"
     inkscape:cx="153.65345"
     inkscape:cy="218.33395"
     inkscape:window-width="3774"
     inkscape:window-height="2091"
     inkscape:window-x="0"
     inkscape:window-y="0"
     inkscape:window-maximized="1"
     inkscape:current-layer="layer1" /><defs
     id="defs1" /><g
     inkscape:label="Layer 1"
     inkscape:groupmode="layer"
     id="layer1"
     transform="translate(-47.174778,-82.076729)"><rect
       style="font-variation-settings:'wght' 500;fill:#ffffff;stroke-width:0.264583"
       id="rect1"
       width="105.59824"
       height="108.59505"
       x="47.174778"
       y="82.076729" /><path
       style="fill:#000000;stroke-width:0.329857"
       d="m 151.40852,177.41552 c -0.24004,0.55512 -0.6914,0.58237 -1.0135,0.0612 -0.16811,-0.272 -0.17654,-0.3329 -0.0729,-0.52659 0.11879,-0.22195 0.49396,-0.46595 0.71645,-0.46595 0.14888,0 0.3724,0.24398 0.43978,0.48002 0.0275,0.096 -0.004,0.29909 -0.0698,0.45132 z m -3.45731,-21.41909 c -0.12438,0.21353 -0.52063,0.20005 -0.57808,-0.0196 -0.0292,-0.1118 -0.14811,-0.19173 -0.3381,-0.22737 -0.29105,-0.0546 -0.73505,-0.38674 -0.73505,-0.54986 0,-0.12791 0.25701,-0.3595 0.39896,-0.3595 0.12396,0 0.15703,0.0902 0.13135,0.35851 -0.0103,0.10817 0.10098,0.15376 0.48603,0.19901 0.68461,0.0804 0.8474,0.23402 0.63489,0.59888 z m -1.0866,21.45035 c -0.24995,0.24226 -0.33645,0.28086 -0.4582,0.20445 -0.27044,-0.16975 -0.32352,-0.49794 -0.14101,-0.87175 0.18953,-0.38817 0.47678,-0.48333 0.73997,-0.24515 0.26182,0.23695 0.21006,0.57241 -0.14076,0.91245 z m 0.11711,-20.25373 c -0.22631,0.21085 -0.59227,0.22871 -0.94532,0.0461 -0.4775,-0.24692 -0.57696,-0.75133 -0.21517,-1.09121 0.42971,-0.4037 0.9425,0.0717 0.65561,0.60778 -0.081,0.15134 -0.07,0.17887 0.0712,0.17887 0.0919,0 0.21583,-0.0589 0.27559,-0.13091 0.0598,-0.072 0.16274,-0.13091 0.22886,-0.13091 0.18588,0 0.14208,0.32194 -0.0708,0.52025 z m -0.99294,0.70161 c -0.20244,0 -0.44851,-0.14482 -1.14495,-0.67378 -0.40478,-0.30744 -0.61028,-0.51992 -0.57977,-0.59944 0.0955,-0.24884 0.36128,-0.11049 1.06862,0.55626 0.17201,0.16212 0.42073,0.3347 0.55274,0.38349 0.25661,0.0948 0.33057,0.33347 0.10336,0.33347 z m -0.3898,0.78546 c -0.24705,0 -0.71562,-0.20654 -0.85796,-0.37817 -0.20738,-0.25006 0.12138,-0.27634 0.60206,-0.0481 0.44344,0.21053 0.57296,0.4263 0.2559,0.4263 z m -0.51621,-16.46531 c -0.14145,0.0283 -0.40655,0.11391 -0.58911,0.19026 l -0.33192,0.13882 0.21688,0.16379 c 0.30612,0.23116 0.17199,0.30049 -0.33161,0.17142 -0.4243,-0.10874 -0.43918,-0.10552 -1.03063,0.22307 -0.33008,0.18336 -1.30705,0.77379 -2.17108,1.31204 -0.86401,0.53825 -2.53351,1.52658 -3.71,2.19629 -2.34141,1.33284 -2.82677,1.64982 -4.45019,2.90627 -1.57499,1.21899 -2.81157,2.04835 -4.47465,3.00109 -0.80502,0.46117 -1.48385,0.83851 -1.50852,0.83851 -0.0246,0 -0.34785,0.17055 -0.71819,0.37901 -0.37035,0.20846 -0.94827,0.52788 -1.28428,0.70981 -0.33601,0.18193 -1.18039,0.65375 -1.8764,1.04849 -0.69603,0.39474 -1.46186,0.82187 -1.70187,0.9492 -0.24001,0.12731 -0.49529,0.26975 -0.56728,0.31653 -0.19793,0.12858 -2.49055,1.54184 -3.18553,1.96368 -0.33601,0.20396 -0.77209,0.45232 -0.96906,0.55192 -0.34318,0.17354 -0.3705,0.17492 -0.65456,0.0331 -0.41244,-0.2059 -0.68916,-0.77881 -0.68916,-1.4268 0,-0.51473 0.0967,-0.68358 0.29647,-0.51778 0.0773,0.0642 0.10098,0.2332 0.0732,0.52267 -0.0512,0.53364 0.32135,1.45977 0.55177,1.37135 0.0753,-0.0289 0.85113,-0.49779 1.72414,-1.04202 2.47667,-1.54397 3.10314,-1.92054 3.90006,-2.34437 0.40801,-0.21698 1.40949,-0.76729 2.22551,-1.22288 0.81602,-0.45559 1.85677,-1.02602 2.31278,-1.2676 2.82373,-1.49595 4.33458,-2.46363 6.81835,-4.36706 1.19721,-0.91748 3.84401,-2.63925 4.05721,-2.63925 0.10661,0 2.25806,-1.25348 3.74296,-2.18074 0.81602,-0.50956 1.70867,-1.05452 1.98366,-1.21099 0.27499,-0.15648 0.51981,-0.31658 0.54404,-0.35579 0.0422,-0.0685 -0.4204,-0.28507 -2.22223,-1.04059 -0.45601,-0.19121 -1.37894,-0.58215 -2.05096,-0.86875 -0.67202,-0.28661 -1.99486,-0.78155 -2.93964,-1.09986 -2.20285,-0.74218 -2.74004,-0.97568 -2.60872,-1.13392 0.0808,-0.0974 0.2077,-0.0728 0.72851,0.14077 0.34686,0.14227 1.29596,0.47635 2.1091,0.74241 1.3033,0.42644 2.0471,0.70672 2.97258,1.12013 0.144,0.0643 0.65456,0.28098 1.13457,0.48146 0.48001,0.20048 1.13461,0.4777 1.45466,0.61605 0.32006,0.13835 0.60587,0.25154 0.63517,0.25154 0.0293,0 0.33048,0.13701 0.66933,0.30447 0.51355,0.25381 0.64682,0.28803 0.80084,0.20559 0.22088,-0.11821 1.00329,-0.33302 1.21829,-0.33448 0.25005,-0.002 0.17328,0.14759 -0.10445,0.20313 z m -0.0127,17.42534 c -0.0524,0 -0.19518,-0.0785 -0.31722,-0.17455 -0.12205,-0.096 -0.28908,-0.17455 -0.37116,-0.17455 -0.0821,0 -0.22034,0.0785 -0.30722,0.17455 -0.17127,0.18925 -0.4353,0.23022 -0.52705,0.0818 -0.0315,-0.0511 0.002,-0.15903 0.0752,-0.24001 0.23754,-0.26377 0.19661,-0.36507 -0.24531,-0.60707 -0.2394,-0.13109 -0.44848,-0.30709 -0.46459,-0.39109 -0.0452,-0.23529 0.26737,-0.19025 0.73418,0.1058 0.32484,0.206 0.4421,0.2401 0.57714,0.16783 0.25091,-0.13429 0.40307,-0.0402 0.35359,0.21858 -0.0351,0.18344 0.0126,0.25481 0.27262,0.40822 0.29764,0.17562 0.42777,0.43051 0.21977,0.43051 z m -1.0487,1.0473 c -0.2458,0 -0.26614,0.0205 -0.21652,0.21818 0.048,0.1914 0.0265,0.21819 -0.17527,0.21819 -0.18979,0 -0.22061,0.0306 -0.17621,0.17455 0.0296,0.096 0.078,0.2531 0.10763,0.3491 0.0714,0.23188 -0.0528,0.22222 -0.58037,-0.0451 -0.46591,-0.2361 -0.53338,-0.34779 -0.26208,-0.4339 0.13668,-0.0434 0.16099,-0.10644 0.12,-0.31135 -0.0464,-0.2322 -0.0293,-0.25694 0.17771,-0.25694 0.18471,0 0.2291,-0.0413 0.2291,-0.21304 0,-0.32068 0.14316,-0.34956 0.61721,-0.12449 0.49177,0.23348 0.56328,0.42481 0.1588,0.42481 z m -0.0235,-3.05462 c -0.14801,0 -0.33585,-0.21302 -0.2572,-0.29167 0.12959,-0.12959 0.37743,-0.0527 0.37743,0.11712 0,0.096 -0.0541,0.17455 -0.12023,0.17455 z m -0.37007,6.745 c -0.0627,0.0628 -0.92888,-0.52934 -1.48332,-1.0141 -0.47579,-0.416 -0.49164,-0.64157 -0.0745,-1.05879 0.61404,-0.61403 1.04554,-0.25188 0.65578,0.55038 l -0.19474,0.40084 0.2044,0.16054 c 0.90585,0.71147 1.01953,0.8339 0.89231,0.96113 z m -1.53107,0.22225 c -0.11228,-0.016 -0.20414,-0.0878 -0.20414,-0.15982 0,-0.18927 0.34049,-0.16319 0.37749,0.0289 0.0239,0.12393 -0.0151,0.15333 -0.17335,0.13091 z m -0.10743,12.6914 c -0.16004,0.21082 -0.45258,0.19121 -0.6154,-0.0413 -0.17886,-0.25535 -0.17162,-0.44481 0.0238,-0.62161 0.18749,-0.16968 0.46061,-0.1875 0.60841,-0.0397 0.1378,0.13781 0.1289,0.51068 -0.0167,0.70257 z m -0.53881,-11.71665 c -0.0272,0 -0.12551,-0.0407 -0.21857,-0.0906 -0.14052,-0.0752 -0.18592,-0.0539 -0.26791,0.12611 -0.13381,0.29368 -0.30549,0.34196 -0.59916,0.16848 -0.36937,-0.21819 -0.59437,-0.81497 -0.30726,-0.81497 0.0708,0 0.18959,0.11783 0.26407,0.26183 0.16052,0.31042 0.27127,0.33246 0.35441,0.0705 0.046,-0.14516 0.006,-0.23539 -0.16868,-0.37418 -0.28124,-0.22426 -0.29563,-0.39522 -0.033,-0.39252 0.22171,0.002 1.02548,0.72272 1.02548,0.91917 0,0.0693 -0.0222,0.12611 -0.0494,0.12611 z m -0.97121,1.65823 c -0.16073,0.4497 -0.56129,0.37955 -0.87336,-0.15296 -0.2086,-0.35595 -0.24086,-0.37857 -0.3422,-0.23999 -0.12601,0.17232 -0.3821,0.11962 -0.3821,-0.0786 0,-0.2604 0.16995,-0.56249 0.34829,-0.61909 0.24113,-0.0766 0.40031,0.0657 0.61403,0.54892 l 0.17483,0.39522 0.2007,-0.18856 c 0.11039,-0.1037 0.22763,-0.18856 0.26054,-0.18856 0.0688,0 0.0684,0.33024 -6.6e-4,0.52366 z m -0.90144,-75.099944 c -0.0749,0.267018 -0.2004,2.091938 -0.34794,5.061939 -0.11795,2.374139 -0.21922,2.923705 -0.53876,2.923705 -0.15845,0 -0.17132,-0.0388 -0.12305,-0.370916 0.0297,-0.20401 0.0895,-1.097481 0.13308,-1.985503 0.0969,-1.975276 0.414,-5.934008 0.49159,-6.136198 0.0505,-0.131561 -0.025,-0.147582 -0.69522,-0.147582 -0.41352,0 -1.31119,0.076 -1.99483,0.16893 -0.68365,0.09292 -1.459,0.19228 -1.72301,0.220822 -0.264,0.02852 -0.92405,0.136056 -1.46675,0.23893 -0.70924,0.134432 -1.05287,0.163776 -1.22184,0.104353 -0.32734,-0.115114 -0.29341,-0.248531 0.0704,-0.276589 0.16801,-0.01296 0.58038,-0.08102 0.91638,-0.151324 0.33602,-0.07029 1.08221,-0.186478 1.65823,-0.258248 0.576,-0.07174 1.51709,-0.190211 2.09128,-0.263228 1.20672,-0.153441 2.42724,-0.172816 2.67093,-0.04245 0.18259,0.09772 0.21242,0.440086 0.0796,0.913316 z m -0.51968,76.482604 c -0.0867,0.35871 -0.20884,0.48987 -0.391,0.41997 -0.15106,-0.0579 -0.12492,-0.28842 0.0939,-0.82848 0.21491,-0.53034 0.4469,-0.21131 0.29708,0.40851 z m -0.2772,1.75923 c -0.0554,0 -0.30114,-0.18655 -0.54618,-0.41455 -0.24503,-0.22801 -0.62193,-0.55837 -0.83755,-0.73413 -0.31278,-0.25498 -0.37032,-0.34195 -0.28469,-0.43025 0.15564,-0.16048 0.42534,0.007 1.15785,0.71773 0.56816,0.55153 0.75176,0.8612 0.51057,0.8612 z m -0.25989,-67.37613 c -0.0479,0.12 -0.13975,0.45383 -0.20419,0.74183 -0.0644,0.28801 -0.23954,1.06896 -0.38911,1.73546 -0.28271,1.25969 -0.33645,1.58744 -0.61695,3.76285 -0.38966,3.02189 -0.48237,3.44992 -0.716,3.30554 -0.1221,-0.0755 -0.0756,-0.86943 0.14395,-2.45821 0.11748,-0.85003 0.23793,-1.78116 0.26769,-2.06917 0.0842,-0.81525 0.28229,-1.87336 0.6616,-3.53463 0.42085,-1.84316 0.45703,-1.9408 0.70573,-1.90419 0.22783,0.0336 0.26234,0.13208 0.14728,0.42052 z m -0.60459,68.84446 c -0.0513,0.12807 -0.13778,0.19121 -0.23448,0.17129 -0.12239,-0.0252 -0.14823,-0.10731 -0.12866,-0.40888 0.0298,-0.45866 -0.0885,-0.61982 -0.45486,-0.61982 -0.15295,0 -0.35433,-0.0559 -0.44751,-0.12417 -0.096,-0.0704 -0.26881,-0.10437 -0.39883,-0.0785 -0.33373,0.0664 -0.35419,-0.0553 -0.0912,-0.54235 0.31394,-0.58127 0.53306,-0.58717 0.69362,-0.0187 0.0644,0.22801 0.1639,0.42037 0.22112,0.42748 0.0572,0.007 0.16292,0.021 0.23492,0.0307 0.072,0.01 0.19863,0.0236 0.28141,0.0307 0.17767,0.0153 0.41913,0.44304 0.41126,0.7286 -0.003,0.11039 -0.0422,0.29199 -0.0868,0.40355 z m -1.4131,-36.02591 c -0.18763,0.11592 -0.40182,0.16718 -0.63274,0.15145 -0.36255,-0.0247 -0.47958,-0.17491 -0.17455,-0.22405 0.096,-0.0155 0.23346,-0.0516 0.30546,-0.0803 0.16778,-0.0669 -0.25784,-0.17477 -0.7462,-0.18904 -0.59619,-0.0174 -0.75415,-0.34333 -0.28418,-0.58635 0.2734,-0.14138 0.28222,-0.13976 0.46146,0.085 0.12977,0.16275 0.26483,0.22917 0.46591,0.22917 0.33723,0 0.88848,0.21463 0.88848,0.34593 0,0.0512 -0.12763,0.17186 -0.28364,0.26823 z m -0.24232,-19.59642 c -0.21048,1.02279 -0.22357,2.82614 -0.029,3.99413 0.10066,0.60418 0.11582,0.88729 0.051,0.95211 -0.10499,0.10498 -4.73254,0.008 -4.73254,-0.0996 0,-0.0689 2.14268,-0.17747 3.50487,-0.17747 0.47237,0 0.85887,-0.0101 0.85887,-0.0224 0,-0.0123 -0.0418,-0.15959 -0.0928,-0.32728 -0.15214,-0.49985 -0.25833,-2.7127 -0.16634,-3.46631 0.17467,-1.43101 0.30461,-1.98575 0.4727,-2.01812 0.15619,-0.0301 0.31335,0.12238 0.30114,0.29216 -0.004,0.048 -0.079,0.44074 -0.16792,0.87274 z m -0.27068,56.28857 c -0.0817,0.34885 -0.19441,0.47989 -0.41481,0.48234 -0.0891,9.7e-4 -0.10758,-0.0783 -0.0708,-0.30496 0.0567,-0.34955 0.38281,-0.85508 0.50345,-0.78051 0.094,0.058 0.0917,0.13573 -0.0179,0.60313 z m -0.6996,2.41045 c -0.31376,0.16792 -0.84666,0.0403 -1.18384,-0.28349 -0.81211,-0.77984 -0.96677,-2.16694 -0.24161,-2.16694 0.24496,0 0.2781,0.10178 0.0853,0.26183 -0.15299,0.12697 -0.16646,0.43574 -0.0391,0.89457 0.10398,0.37445 0.10405,0.37448 0.38789,0.1885 0.17547,-0.11497 0.26452,-0.12138 0.51912,-0.0373 0.56914,0.18784 0.87474,0.92747 0.47222,1.14289 z m -0.35398,-0.68747 c -0.18905,-0.18905 -0.34524,-0.12212 -0.31562,0.13527 0.0335,0.29087 0.42035,0.41293 0.42035,0.13261 0,-0.0897 -0.0471,-0.21029 -0.10473,-0.26788 z m 0.12655,-37.77075 c -0.60529,0.39526 -1.0414,0.52321 -1.40256,0.41151 -0.17661,-0.0546 -0.39544,-0.0894 -0.48628,-0.0773 -0.2324,0.0308 -0.28693,-0.19708 -0.0613,-0.25608 0.10907,-0.0285 0.20466,-0.14231 0.23343,-0.27788 0.1352,-0.63706 0.36167,-0.83741 0.65081,-0.57573 0.20427,0.18485 0.22072,0.41468 0.0404,0.56434 -0.072,0.0597 -0.13091,0.16539 -0.13091,0.23476 0,0.14527 0.12703,0.11655 0.89193,-0.20164 0.56495,-0.23503 0.59174,-0.24053 0.59174,-0.12163 0,0.0473 -0.14728,0.1822 -0.32728,0.29975 z m 0.0135,28.24016 c -0.1179,2.2e-4 -0.38445,-0.28537 -0.38445,-0.41192 0,-0.12162 0.22777,-0.20642 0.38862,-0.14469 0.14748,0.0566 0.14374,0.55634 -0.004,0.55661 z m -0.81566,5.6464 c -0.16034,0.042 -0.44311,0.38578 -2.10331,2.55761 -0.38529,0.50401 -0.8964,1.17167 -1.1358,1.48367 -0.56074,0.73076 -1.35859,1.80207 -1.91355,2.56941 -0.33665,0.46548 -0.43808,0.68003 -0.43808,0.92659 v 0.32086 l -1.11276,-0.0353 c -0.61201,-0.0194 -1.25021,-0.0393 -1.41821,-0.0441 -0.16801,-0.005 -1.56222,0.009 -3.09825,0.0299 -2.582,0.0358 -4.44237,-0.0204 -4.55951,-0.13752 -0.0267,-0.0267 0.18604,-0.33387 0.47264,-0.68272 0.85251,-1.03773 2.24515,-3.01845 2.7348,-3.88965 0.21426,-0.38124 0.24412,-0.40107 0.47217,-0.31355 0.18456,0.0708 0.17449,0.2879 -0.0236,0.50868 -0.0889,0.0991 -0.48909,0.6711 -0.88931,1.27111 -0.40022,0.60002 -1.03556,1.49348 -1.41188,1.9855 l -0.68421,0.89457 1.37716,0.02 c 1.56657,0.0227 1.54312,0.0229 4.94539,-0.0343 l 2.52094,-0.0425 0.18458,-0.25376 c 0.16911,-0.23251 0.18455,-0.36716 0.18428,-1.608 -1.5e-4,-0.74483 -0.0299,-1.69788 -0.0659,-2.11789 -0.0615,-0.71498 -0.0551,-0.76366 0.10004,-0.76366 0.0912,0 0.19166,0.0676 0.22337,0.15021 0.0317,0.0826 0.0748,0.8939 0.0958,1.80285 0.021,0.90894 0.0543,1.66885 0.0742,1.68869 0.0198,0.0198 0.16589,-0.15325 0.32455,-0.38463 0.40041,-0.58389 0.83639,-1.15684 1.12289,-1.47566 0.13319,-0.14823 0.553,-0.67843 0.93292,-1.17822 0.37991,-0.49979 0.87597,-1.14434 1.10236,-1.43235 0.22638,-0.28801 0.62709,-0.79856 0.89046,-1.13457 0.26337,-0.33601 0.47907,-0.6585 0.47934,-0.71665 2.7e-4,-0.0582 -0.16643,-0.14699 -0.37044,-0.19742 -0.204,-0.0505 -0.52801,-0.13592 -0.72001,-0.19 -0.19201,-0.0541 -0.72883,-0.11089 -1.19294,-0.12625 l -0.84384,-0.0279 -0.94529,0.96721 c -1.09335,1.11872 -1.18982,1.20742 -1.31336,1.20742 -0.12552,0 -0.19481,0.30295 -0.10258,0.44852 0.0414,0.0654 0.0712,0.19731 0.0664,0.29331 -0.008,0.14654 -0.0152,0.15004 -0.0487,0.0218 -0.045,-0.17219 -0.12607,-0.19342 -0.25318,-0.0663 -0.057,0.057 -0.18885,0.057 -0.3878,0 -0.41752,-0.11975 -2.9726,-0.10736 -3.6626,0.0178 -0.81843,0.14838 -1.35276,0.14393 -1.35276,-0.0113 0,-0.0855 0.2219,-0.17476 0.6982,-0.28091 0.55001,-0.12259 1.10572,-0.1564 2.61824,-0.1593 l 1.92005,-0.004 0.74183,-0.89125 c 0.40801,-0.49019 0.96893,-1.1326 1.24648,-1.4276 0.5932,-0.63046 0.83585,-0.69745 2.00154,-0.55256 0.96608,0.12008 2.68667,0.65507 2.68667,0.83539 0,0.0739 -0.0762,0.15417 -0.16939,0.17853 z m -0.0667,-4.62074 c -0.0446,0.2315 -0.29932,0.26153 -0.47036,0.0555 -0.10072,-0.12137 -0.0833,-0.16978 0.1251,-0.34911 0.3848,-0.33099 0.4542,-0.27198 0.34526,0.29365 z m -1.02,0.97279 c -0.25422,0.24639 -0.32216,0.27308 -0.48002,0.1886 -0.25387,-0.13587 -0.23146,-0.22152 0.1108,-0.42346 0.69561,-0.41042 0.9005,-0.28009 0.36922,0.23486 z m -0.19704,-29.16725 c -0.18645,0.0716 -0.54588,-0.36424 -0.90503,-1.09737 -0.17908,-0.36553 -0.24316,-0.58612 -0.18669,-0.64259 0.13316,-0.13316 0.25817,-0.009 0.53126,0.52917 0.13838,0.27251 0.35324,0.64409 0.47745,0.82573 0.19783,0.28929 0.20813,0.33706 0.0831,0.38506 z m -1.03834,0.4629 c -0.17315,0 -0.55673,-0.43315 -0.56034,-0.63275 -0.004,-0.21805 0.23394,-0.18889 0.35601,0.0436 0.0567,0.10801 0.15626,0.22778 0.22126,0.26617 0.16143,0.0953 0.1495,0.32294 -0.0169,0.32294 z m -0.5781,-1.0907 c -0.17808,0.0694 -0.53173,-0.10553 -0.48668,-0.2407 0.0563,-0.16874 0.20588,-0.16417 0.42301,0.013 0.18302,0.14926 0.19108,0.17814 0.0636,0.22778 z m -0.58031,1.99743 c -0.0472,0.0292 -0.16516,-0.0815 -0.26216,-0.24589 -0.13074,-0.22159 -0.22072,-0.28733 -0.34779,-0.2541 -0.22049,0.0576 -0.31523,-0.093 -0.14653,-0.23299 0.16788,-0.13933 0.1641,-0.25318 -0.015,-0.45106 -0.0797,-0.0881 -0.11914,-0.18592 -0.0876,-0.21742 0.0511,-0.0511 0.19075,0.005 0.66815,0.26859 0.086,0.0475 0.14301,0.18773 0.14207,0.3491 -9.6e-4,0.14838 0.0291,0.37349 0.0665,0.50025 0.0398,0.13462 0.0324,0.25255 -0.0177,0.28352 z m -0.98146,0.57693 c -0.0512,0 -0.22182,-0.0982 -0.37915,-0.21818 -0.15733,-0.12001 -0.31003,-0.21819 -0.33932,-0.21819 -0.0293,0 -0.0799,0.14176 -0.11236,0.31502 -0.0565,0.30085 -0.0723,0.31287 -0.35306,0.26731 -0.26472,-0.0429 -0.29396,-0.0271 -0.29396,0.15985 0,0.29269 -0.13201,0.33974 -0.41268,0.14708 -0.13303,-0.0913 -0.35407,-0.23423 -0.49121,-0.31759 -0.32284,-0.19622 -0.18481,-0.39649 0.1638,-0.23766 0.30526,0.13908 0.29461,0.14644 0.35748,-0.24673 0.0424,-0.26547 0.0956,-0.3491 0.22196,-0.3491 0.0914,0 0.18874,0.0589 0.21637,0.13091 0.0808,0.2106 0.19858,0.15262 0.3546,-0.17455 0.0802,-0.168 0.19253,-0.30546 0.24981,-0.30546 0.0991,0 0.91082,0.88747 0.91082,0.99576 0,0.0283 -0.0419,0.0515 -0.0931,0.0515 z m -0.8451,29.96934 c -0.42001,-0.0246 -0.84092,-0.0605 -0.93534,-0.0798 -0.35565,-0.0728 -2.85348,0.13466 -2.95582,0.24543 -0.0559,0.0605 -0.47476,0.52111 -0.93077,1.02353 -1.09677,1.20837 -1.75489,1.82864 -1.94187,1.83014 -0.25688,0.002 -0.17149,-0.23943 0.22281,-0.63023 0.84035,-0.83286 2.2427,-2.41914 2.2427,-2.53683 0,-0.36319 3.92771,-0.40915 4.85442,-0.0568 0.4328,0.16455 0.20318,0.24901 -0.55613,0.20457 z m 0.47862,-32.58758 c -0.19674,0 -2.50929,-0.83974 -3.29323,-1.19585 -2.99854,-1.3621 -4.80946,-2.11866 -6.32742,-2.64345 -3.20236,-1.10714 -4.22245,-1.54099 -5.89105,-2.50554 -0.96702,-0.55898 -1.94962,-1.02431 -2.9237,-1.38457 -1.52143,-0.56268 -2.48734,-1.01662 -2.48734,-1.16893 0,-0.18703 0.18422,-0.15501 0.79414,0.13806 0.35525,0.17069 1.05827,0.46707 1.56228,0.65862 1.20506,0.458 2.10994,0.88498 3.41966,1.61366 1.82593,1.01586 2.2574,1.19686 5.52601,2.31813 1.53079,0.52513 2.76487,1.0093 3.84008,1.50662 0.38401,0.17762 0.89457,0.41382 1.13458,0.52491 1.2984,0.60096 2.66977,1.1588 4.08009,1.65968 0.39634,0.14076 0.67638,0.28958 0.67638,0.35944 0,0.0656 -0.0497,0.11922 -0.11048,0.11922 z m -0.66005,-29.46876 c -0.20183,0.18266 -0.31188,0.18151 -0.60712,-0.006 -0.30084,-0.19137 -0.36485,-0.28277 -0.3665,-0.52341 -0.002,-0.2673 0.43106,-0.49081 0.73029,-0.37705 0.39599,0.15056 0.52944,0.64782 0.24333,0.90674 z m -0.67658,-15.181615 c -0.0759,0.0291 -1.44068,0.05414 -3.0328,0.05569 -2.82489,0.0029 -3.19113,0.02446 -4.98243,0.297542 -0.94472,0.144004 -1.34662,0.112552 -1.17678,-0.09214 0.0552,-0.06642 0.22314,-0.121738 0.37327,-0.122811 0.15012,-9.67e-4 0.7246,-0.08073 1.27661,-0.177032 0.8155,-0.142254 1.56966,-0.185105 4.02267,-0.228537 1.66046,-0.02939 3.16267,-0.02649 3.33826,0.0068 0.3365,0.06314 0.41226,0.172169 0.1812,0.26083 z m -0.32956,50.585065 c -0.0652,0 -0.26785,-0.24546 -0.45037,-0.54546 -0.18253,-0.30001 -0.54572,-0.87028 -0.80711,-1.26726 -0.51773,-0.78634 -0.51829,-0.85352 -0.01,-1.11674 0.32908,-0.17018 0.63098,-0.15725 0.80445,0.0344 0.20691,0.22862 0.17993,0.38739 -0.11496,0.67677 -0.14267,0.14001 -0.26049,0.29689 -0.26182,0.34861 -9.7e-4,0.0517 0.21359,0.45065 0.47759,0.88647 0.50116,0.82734 0.55846,0.98316 0.3615,0.98316 z m -1.17622,-2.58277 c -0.1068,0.1068 -0.11437,0.16128 -0.0337,0.24202 0.0807,0.0807 0.1554,0.0564 0.33166,-0.10846 0.22713,-0.21235 0.22718,-0.21271 0.0337,-0.24203 -0.1066,-0.0161 -0.25586,0.0327 -0.33166,0.10847 z m -0.40665,-18.8313 c -0.0878,0.0337 -0.65401,0.0152 -1.25826,-0.0412 -1.43162,-0.13351 -2.39451,-0.12645 -3.89142,0.0285 -0.67202,0.0696 -1.4575,0.12747 -1.74551,0.12863 -0.55358,0.002 -1.23485,-0.14373 -1.13578,-0.2433 0.0323,-0.0325 0.57604,-0.0832 1.20822,-0.11264 0.63217,-0.0295 1.69924,-0.10199 2.37126,-0.16121 1.91161,-0.16845 5.17054,0.12527 4.45149,0.40119 z m -0.66267,20.5024 c -0.10992,0.068 -0.35614,-0.12855 -0.29172,-0.23279 0.075,-0.12144 0.27561,-0.0906 0.32984,0.0508 0.0271,0.0705 0.01,0.15239 -0.0381,0.18206 z m -0.34907,-34.79218 c -0.0923,0.15189 -0.22702,0.29882 -0.29925,0.32654 -0.17248,0.0661 -0.74044,-0.37038 -0.74044,-0.56913 0,-0.2207 0.36495,-0.53442 0.62168,-0.53442 0.46655,0 0.66556,0.36993 0.41801,0.77701 z m -0.72398,35.44202 c -0.0663,0 -0.28645,-0.25446 -0.4891,-0.56549 -0.31323,-0.48078 -0.39227,-0.55274 -0.52757,-0.48033 -0.18798,0.1006 -0.43361,0.0264 -0.43361,-0.13108 0,-0.061 0.085,-0.16734 0.1888,-0.23629 l 0.1888,-0.12535 -0.36335,-0.53506 c -0.40734,-0.59983 -0.43931,-0.71919 -0.19268,-0.71919 0.11558,0 0.26529,0.16196 0.4639,0.50183 0.25671,0.43934 0.32801,0.50292 0.57262,0.51056 0.35216,0.011 0.40737,0.0661 0.237,0.23647 -0.18946,0.18946 -0.17455,0.26676 0.17039,0.88358 0.34212,0.61176 0.35571,0.66035 0.1848,0.66035 z m -0.99209,0.71987 c -0.80108,0.78058 -1.722,0.76632 -2.31613,-0.0359 -0.26251,-0.35446 -0.14589,-0.63255 0.41602,-0.992 0.51814,-0.33145 0.69992,-0.36347 0.95754,-0.16865 0.25421,0.19225 0.22134,0.65283 -0.0742,1.04039 -0.13445,0.17627 -0.22212,0.34284 -0.19482,0.37015 0.0795,0.0795 0.57861,-0.15837 0.98812,-0.47095 0.20777,-0.15861 0.4167,-0.28837 0.46429,-0.28837 0.17987,0 0.0749,0.23772 -0.24076,0.54532 z m -1.2234,-0.98169 c -0.0368,0 -0.21359,0.0996 -0.39274,0.22133 -0.22996,0.15627 -0.32573,0.28536 -0.32573,0.43912 0,0.35492 0.25263,0.36915 0.53384,0.0301 0.22875,-0.27584 0.33962,-0.69052 0.18463,-0.69052 z m 0.90485,17.33277 c -0.1632,0.1632 -0.34117,0.29673 -0.39548,0.29673 -0.17584,0 -0.20585,-0.26375 -0.0496,-0.43637 0.19541,-0.21593 0.12309,-0.3976 -0.18932,-0.47558 -0.35338,-0.0882 -0.81435,-0.46374 -0.81435,-0.66343 0,-0.22936 0.19592,-0.2143 0.49588,0.0381 0.13609,0.11451 0.40277,0.2731 0.59261,0.35243 0.37184,0.15536 0.65701,0.37625 0.65701,0.50891 0,0.0453 -0.13353,0.21601 -0.29673,0.37921 z m -0.67419,9.86907 c -0.17433,0.17433 -0.17695,0.19758 -0.0436,0.38791 0.3433,0.49014 0.0145,1.21093 -0.55243,1.21093 -0.22459,0 -0.26579,-0.0335 -0.26579,-0.21595 0,-0.15166 0.0779,-0.25625 0.26183,-0.35134 0.31018,-0.1604 0.3121,-0.17037 0.0873,-0.45619 -0.096,-0.12205 -0.17454,-0.33024 -0.17454,-0.46263 0,-0.13346 -0.0583,-0.2631 -0.13092,-0.29095 -0.17703,-0.068 -0.17148,-0.54512 0.007,-0.61366 0.0759,-0.0291 0.26909,-0.053 0.42924,-0.053 0.16015,0 0.35331,0.0239 0.42924,0.053 0.20508,0.0787 0.17574,0.56872 -0.0474,0.79188 z m -0.38714,-9.15488 c -0.0749,0.10696 -0.24886,0.25272 -0.38655,0.32392 -0.13768,0.0712 -0.27541,0.20844 -0.30604,0.30497 -0.10568,0.33295 -0.50132,0.21178 -1.19767,-0.36681 -0.57017,-0.47374 -0.97153,-0.9974 -0.90245,-1.17744 0.0447,-0.11635 0.18146,-0.0234 0.68507,0.46521 0.81273,0.78862 1.04463,0.96638 0.76854,0.58909 -0.32627,-0.44584 -0.24169,-1.16732 0.13685,-1.16732 0.0681,0 0.24531,0.19543 0.39378,0.43427 0.26858,0.43203 0.31995,0.4487 0.61191,0.19847 0.28952,-0.24815 0.43807,0.0508 0.19656,0.39564 z m -0.68919,-16.00951 c -0.0707,0.0272 -0.25493,-0.0643 -0.41455,-0.20558 -0.15804,-0.13993 -0.32177,-0.24606 -0.36383,-0.23585 -0.0421,0.0101 -0.0813,0.27319 -0.0873,0.5844 -0.0147,0.77008 -0.16625,0.77832 -0.64355,0.035 -0.20399,-0.31771 -0.37091,-0.61232 -0.37091,-0.6547 0,-0.1121 0.29685,-0.0944 0.41606,0.0248 0.12129,0.12129 0.17492,0.0102 0.21331,-0.44216 0.0147,-0.17269 0.0915,-0.33682 0.18388,-0.39274 0.13115,-0.0794 0.19176,-0.0536 0.34911,0.14854 0.10472,0.13454 0.33767,0.41384 0.51768,0.62068 0.36784,0.42267 0.37812,0.44927 0.20007,0.51759 z m -0.245,26.49161 c -0.22328,0.43161 -0.28258,0.19157 -0.25113,-1.01645 0.0172,-0.65959 0.045,-1.21394 0.0617,-1.23186 0.0167,-0.018 0.0911,-0.01 0.16514,0.019 0.11049,0.0423 0.13446,0.22855 0.1334,1.03627 -6.7e-4,0.60827 -0.0424,1.06422 -0.1091,1.19297 z m -0.15523,-63.75945 c -0.20896,0.26566 -0.71758,0.39505 -0.91356,0.23241 -0.3285,-0.27263 0.0167,-1.04773 0.46549,-1.04517 0.2825,0.002 0.39414,0.0696 0.52607,0.32021 0.12843,0.24399 0.13117,0.22664 -0.078,0.49255 z m -0.49341,73.66302 c -0.0365,0.0365 -0.0867,0.27004 -0.1118,0.51909 -0.0326,0.3241 -0.0828,0.45284 -0.17648,0.45284 -0.0749,0 -0.14135,-0.0933 -0.15534,-0.21818 -0.0624,-0.55696 -0.098,-0.61093 -0.40292,-0.61093 -0.40664,0 -0.48823,-0.14183 -0.4683,-0.81414 0.0144,-0.48624 0.0421,-0.58225 0.16765,-0.58225 0.20807,0 0.27778,0.14455 0.26215,0.5436 -0.012,0.30629 0.007,0.33833 0.18143,0.31334 0.15015,-0.0215 0.20696,-0.10307 0.24785,-0.35608 0.0626,-0.38686 0.11337,-0.45303 0.29464,-0.38347 0.0935,0.0359 0.13467,0.17051 0.13467,0.44001 0,0.21358 0.0209,0.4427 0.0463,0.50913 0.0255,0.0664 0.0165,0.1506 -0.0199,0.18704 z m -0.46856,-18.88308 c -0.0511,0 -0.16458,-0.0383 -0.25207,-0.0851 -0.24236,-0.12971 -0.30998,0.32808 -0.0843,0.57076 0.3183,0.34226 0.14098,0.41445 -0.27058,0.11017 -0.24085,-0.17806 -0.26641,-0.18073 -0.4179,-0.0436 -0.20353,0.18421 -0.39852,0.18602 -0.54865,0.005 -0.10009,-0.1206 -0.0891,-0.16351 0.0766,-0.29763 0.10645,-0.0862 0.19355,-0.17922 0.19355,-0.20671 0,-0.0275 -0.25528,-0.25061 -0.56729,-0.49581 -0.54922,-0.43163 -0.71156,-0.6917 -0.43172,-0.6917 0.0746,0 0.40291,0.216 0.72967,0.48001 0.32676,0.26401 0.65617,0.48 0.73203,0.48 0.19295,0 0.26999,-0.15875 0.14823,-0.30546 -0.0991,-0.11945 -0.0546,-0.30546 0.0732,-0.30546 0.0917,0 0.71231,0.61705 0.71231,0.70815 0,0.0425 -0.0419,0.0773 -0.093,0.0773 z m -0.24712,9.72559 c -0.0507,0.0313 -0.27957,0.0767 -0.50872,0.10082 -0.4143,0.0436 -0.41798,0.0418 -0.65664,-0.34247 -0.25563,-0.41153 -0.29833,-0.58191 -0.1458,-0.58191 0.0588,0 0.0731,-0.0962 0.038,-0.25609 -0.0662,-0.30174 0.14131,-0.47872 0.67608,-0.57646 0.41215,-0.0753 0.592,0.0596 0.5705,0.42799 -0.009,0.1505 0.0143,0.4756 0.0513,0.72243 0.0438,0.29168 0.0351,0.4687 -0.0248,0.50569 z m -0.2109,-26.08678 c -0.13526,0.0544 -0.25707,0.0188 -0.68272,-0.20037 -0.0305,-0.0158 -0.0962,0.0881 -0.14593,0.23075 -0.11768,0.33758 -0.50356,0.59948 -0.70191,0.47638 -0.45956,-0.28522 -0.40681,-1.18383 0.0802,-1.36769 0.15098,-0.057 0.25581,-0.16024 0.25581,-0.25197 0,-0.27979 0.34508,-0.18634 0.4769,0.12914 0.12673,0.3033 0.42997,0.65487 0.70693,0.81955 0.16081,0.0956 0.16132,0.10352 0.0106,0.16421 z m -1.28465,-0.49499 c -0.1803,0.21644 -0.24519,0.7661 -0.0782,0.66293 0.12715,-0.0786 0.24409,-0.38635 0.24727,-0.65079 l 0.003,-0.21818 z m 0.96474,15.50231 c -0.14001,0.0865 -0.43818,-0.12266 -0.43818,-0.30742 0,-0.20698 0.0737,-0.21495 0.32968,-0.0356 0.2089,0.14631 0.24453,0.25896 0.1085,0.34303 z m -0.0675,2.95511 c -0.0362,0.0223 -0.21143,-0.01 -0.38957,-0.0708 -0.3811,-0.13102 -0.4175,-0.10814 -0.4175,0.26251 0,0.15412 -0.0589,0.32912 -0.13091,0.38887 -0.072,0.0597 -0.13091,0.20202 -0.13091,0.31614 0,0.25615 -0.0265,0.25398 -0.56729,-0.0467 -0.50073,-0.27842 -0.62507,-0.53124 -0.26128,-0.53124 0.21353,0 0.22689,-0.0211 0.17206,-0.27071 -0.0581,-0.26463 -0.0535,-0.2694 0.2062,-0.21236 0.25064,0.055 0.26897,0.0407 0.32407,-0.25293 0.0417,-0.22218 0.10411,-0.31129 0.21808,-0.31129 0.0878,0 0.18114,0.0347 0.20736,0.0771 0.0262,0.0425 0.2249,0.16045 0.44152,0.26228 0.37278,0.17522 0.47606,0.29767 0.32817,0.38908 z m -0.5358,17.64285 c -0.0347,0.22854 -0.0983,0.34909 -0.18399,0.34909 -0.10495,0 -0.1406,-0.18171 -0.17976,-0.91638 -0.0269,-0.50401 -0.0325,-0.96547 -0.0125,-1.02548 0.046,-0.13817 0.21344,-0.14026 0.34934,-0.005 0.10912,0.10911 0.12347,0.9618 0.0269,1.59713 z m -0.85048,-14.09488 c -0.0786,0 -0.39701,-0.27361 -0.70764,-0.60804 -0.31063,-0.33442 -0.63912,-0.63163 -0.72999,-0.66047 -0.0909,-0.0288 -0.20715,-0.13079 -0.2584,-0.22656 -0.0776,-0.14515 -0.0398,-0.23926 0.22734,-0.5653 0.45419,-0.55428 0.67504,-0.68643 0.90607,-0.54216 0.23304,0.14555 0.23574,0.49645 0.007,0.94431 -0.096,0.18818 -0.17455,0.37513 -0.17455,0.41545 0,0.0403 0.19637,0.317 0.43637,0.61484 0.24002,0.29784 0.43638,0.56098 0.43638,0.58473 0,0.0238 -0.0643,0.0432 -0.14285,0.0432 z m -1.07901,-1.78914 c -0.048,0.0297 -0.0873,0.11286 -0.0873,0.18486 0,0.072 0.0393,0.10664 0.0873,0.077 0.048,-0.0297 0.0873,-0.11285 0.0873,-0.18484 0,-0.072 -0.0393,-0.10665 -0.0873,-0.077 z m 0.73982,-75.461532 c -0.16325,0.161127 -0.49554,0.679819 -0.73842,1.152643 -0.24287,0.472823 -0.79257,1.389968 -1.22157,2.038093 -0.42898,0.648125 -0.8622,1.339575 -0.9627,1.536573 -0.21782,0.426984 -0.46583,0.447182 -0.50271,0.04099 -0.0251,-0.27716 0.0867,-0.478895 1.12203,-2.022497 0.31607,-0.471267 0.82663,-1.320818 1.13457,-1.887882 0.30794,-0.567073 0.69147,-1.175228 0.85229,-1.351477 l 0.29241,-0.320437 0.16579,0.204752 c 0.21124,0.260869 0.21121,0.260975 -0.14169,0.609277 z m -0.004,56.886412 c -0.18318,0.0703 -0.31933,-0.0829 -0.63368,-0.7126 -0.27685,-0.55465 -0.88758,-2.13934 -0.88758,-2.30304 0,-0.2711 0.41341,0.0362 0.48457,0.3601 0.0343,0.15622 0.11271,0.402 0.17423,0.5462 0.0615,0.1442 0.19783,0.47818 0.3029,0.74218 0.10509,0.26401 0.30512,0.66767 0.4445,0.89703 0.21668,0.35653 0.23337,0.42473 0.11506,0.47013 z m -0.32219,35.00872 c -0.0595,0.0491 -0.24812,0.11551 -0.41919,0.14748 -0.48004,0.0897 -0.62897,-0.19462 -0.39343,-0.75105 0.0417,-0.0985 0.006,-0.15547 -0.11969,-0.1882 -0.10862,-0.0284 -0.17948,-0.11866 -0.17948,-0.22862 0,-0.14448 0.0714,-0.19312 0.34909,-0.23751 0.26309,-0.0421 0.3491,-0.0961 0.3491,-0.21922 0,-0.12375 -0.0642,-0.1634 -0.26456,-0.1634 -0.28496,0 -0.43725,-0.20584 -0.27347,-0.36962 0.13663,-0.13664 0.77143,0.0661 0.88782,0.28364 0.11139,0.20813 0.038,0.52456 -0.23077,0.99443 -0.26143,0.45714 -0.25825,0.48795 0.0504,0.48795 0.29187,0 0.40399,0.11208 0.2442,0.24412 z m -0.72549,-34.55138 c -0.1301,0.1546 -0.378,0.31053 -0.5891,0.3705 -0.20047,0.057 -0.39791,0.13233 -0.43875,0.16749 -0.0948,0.0816 0.60267,1.67984 0.87345,2.00163 0.24622,0.29263 0.25348,0.34872 0.0452,0.34872 -0.31676,0 -0.6308,-0.49196 -1.14203,-1.78913 -0.15134,-0.38401 -0.35246,-0.76341 -0.44692,-0.8431 -0.2367,-0.1997 -0.21522,-0.39236 0.0763,-0.68385 0.47007,-0.47006 1.23893,-0.5232 1.68815,-0.11666 0.20596,0.18639 0.20103,0.22679 -0.0662,0.5444 z m -0.42994,-0.47954 c -0.28065,-0.0705 -0.57945,0.006 -0.83707,0.21488 -0.18065,0.14627 -0.19006,0.18314 -0.0805,0.3151 0.1631,0.19652 0.64918,0.12273 0.93012,-0.1412 0.26123,-0.24541 0.25881,-0.32068 -0.0125,-0.38878 z m 0.23563,20.47374 c -0.23791,0 -0.3844,-0.17879 -0.26468,-0.32305 0.0811,-0.0978 0.12516,-0.0929 0.25974,0.0289 0.20479,0.18532 0.20661,0.29414 0.005,0.29414 z m -0.32358,7.40005 c -0.0687,0.15793 -0.35495,0.5703 -0.63628,0.91638 -0.28134,0.34608 -1.09632,1.4147 -1.81106,2.37472 -0.71475,0.96003 -1.65814,2.19715 -2.09641,2.74916 -0.43828,0.55201 -0.99584,1.29822 -1.23903,1.65823 -0.385,0.56996 -1.38004,1.89389 -3.13211,4.16736 -0.29896,0.38794 -0.55106,0.63274 -0.6516,0.63274 -0.0902,0 -0.16398,-0.0402 -0.16398,-0.0894 0,-0.16051 -0.39875,-0.24984 -0.75205,-0.16846 -0.18638,0.0429 -2.14547,0.0992 -4.35352,0.125 -4.549486,0.0532 -6.482452,0.14905 -8.116552,0.4025 -0.624012,0.0968 -1.684397,0.23177 -2.356413,0.29998 -0.855748,0.0868 -1.470275,0.20427 -2.050962,0.39191 -0.90296,0.29179 -2.045634,0.45704 -2.29201,0.33147 -0.231505,-0.118 -0.145406,-0.3674 0.46187,-1.33793 0.2999,-0.47928 0.8557,-1.37529 1.235115,-1.99113 0.723366,-1.17411 2.040133,-3.02112 2.663565,-3.73614 0.619409,-0.71041 1.848743,-2.6974 2.999026,-4.84738 0.748524,-1.39905 0.954833,-1.7425 1.26299,-2.1025 0.320273,-0.37418 0.428977,-0.42448 0.634976,-0.29384 0.08644,0.0548 -0.02117,0.27345 -0.439796,0.89323 -0.304841,0.45135 -0.831548,1.31156 -1.170452,1.91157 -0.338894,0.60002 -0.782161,1.3855 -0.985027,1.74551 -0.787218,1.39697 -1.268308,2.10413 -3.126584,4.59584 -0.156003,0.20918 -0.283648,0.425 -0.283648,0.47961 0,0.0546 -0.166909,0.28337 -0.370917,0.50835 -0.304541,0.33586 -1.951588,2.91618 -2.326952,3.64551 -0.09359,0.18178 -0.08228,0.19635 0.152774,0.19635 0.139605,0 0.720281,-0.14216 1.290371,-0.31593 0.788949,-0.24045 1.338821,-0.34396 2.302017,-0.4333 0.696023,-0.0646 1.599313,-0.17887 2.007328,-0.25404 1.171718,-0.21584 3.982845,-0.4067 5.934684,-0.40292 0.984022,0.002 3.065527,-0.0307 4.625547,-0.0725 2.0717,-0.0555 2.86855,-0.0495 2.95553,0.0221 0.0923,0.076 0.15692,0.0496 0.28716,-0.11724 0.0924,-0.11845 0.3293,-0.40603 0.52638,-0.63909 0.31114,-0.36792 1.00258,-1.28565 3.5369,-4.69444 0.29819,-0.40108 1.04439,-1.38533 1.65822,-2.1872 0.61383,-0.80188 1.43025,-1.88049 1.81426,-2.39691 0.384,-0.51642 0.928,-1.20603 1.20887,-1.53247 0.28141,-0.32707 0.49026,-0.64676 0.46518,-0.7121 -0.0284,-0.0741 -0.3183,-0.15693 -0.77251,-0.22075 -0.91495,-0.12857 -1.9052,-0.35972 -1.9052,-0.44472 0,-0.0357 0.0548,-0.11026 0.12173,-0.16583 0.0927,-0.077 0.26828,-0.0705 0.73648,0.0272 0.3381,0.0705 0.90188,0.15476 1.25284,0.18726 0.98387,0.0911 1.16844,0.27465 0.89925,0.89426 z m -0.38321,-17.31011 c -0.10129,-0.1071 -1.54262,-2.85243 -1.94505,-3.70481 -0.63681,-1.34878 -1.45036,-4.08454 -1.7778,-5.97832 -0.17093,-0.98859 -1.39011,-5.54236 -2.09127,-7.81109 -0.0667,-0.21601 -0.20637,-0.66766 -0.31027,-1.00367 -0.7434,-2.40423 -1.19762,-4.40808 -1.43427,-6.32741 -0.074,-0.60002 -0.17191,-1.24804 -0.21763,-1.44004 -0.13028,-0.54709 -0.11044,-1.00365 0.0436,-1.00365 0.072,0 0.13092,0.037 0.13092,0.0822 0,0.0453 0.13867,1.05653 0.30815,2.24733 0.35784,2.51419 0.59301,3.52904 1.523,6.57247 0.37402,1.22403 0.76155,2.52006 0.86116,2.88007 0.8309,3.0031 1.47562,5.57201 1.63179,6.50197 0.12525,0.74575 0.62423,2.57692 0.98694,3.62191 0.21699,0.62514 0.78139,1.8746 1.66088,3.67684 0.62589,1.28255 0.87249,1.94274 0.62984,1.68618 z m -0.0998,10.93812 c -0.10969,0.27318 -0.52538,0.62405 -0.74329,0.6274 -0.33363,0.005 -0.48062,-0.19249 -0.53497,-0.7192 -0.0283,-0.27494 -0.0808,-0.49989 -0.11663,-0.49989 -0.0956,0 -0.34693,0.40866 -0.34693,0.56421 0,0.0737 -0.0419,0.13399 -0.093,0.13399 -0.19209,0 -0.43063,-0.18626 -0.43063,-0.33625 0,-0.1675 0.86459,-1.14742 1.01236,-1.14742 0.0491,0 0.18015,0.0847 0.29119,0.1881 0.17939,0.16713 0.19675,0.24495 0.15565,0.69816 -0.0268,0.29564 -0.01,0.53255 0.0403,0.56355 0.0476,0.0294 0.2172,-0.0732 0.37692,-0.22796 0.37725,-0.36566 0.56771,-0.28962 0.38905,0.15531 z m -1.1309,-8.80181 c -0.408,0.003 -1.21312,-0.0494 -1.78912,-0.11556 -0.57602,-0.0662 -1.14548,-0.10838 -1.26549,-0.0938 -0.12,0.0146 -0.27148,0.0298 -0.33662,0.0338 -0.0652,0.004 -0.0996,0.0564 -0.0766,0.11637 0.0495,0.12896 -2.32996,0.12347 -9.27434,-0.0214 -2.424048,-0.0506 -5.801581,-0.0811 -7.505624,-0.068 -1.864,0.0144 -4.019596,-0.0253 -5.411033,-0.0997 -1.902375,-0.10166 -2.769658,-0.10511 -4.887392,-0.0195 -1.416034,0.0572 -3.595714,0.14229 -4.843747,0.18895 -1.248023,0.0467 -2.936799,0.12578 -3.75282,0.17579 -0.81601,0.05 -2.229869,0.12753 -3.141889,0.17227 -0.91202,0.0448 -1.742147,0.10545 -1.844741,0.13494 -0.102583,0.0295 -0.211684,0.0129 -0.242449,-0.0369 -0.130324,-0.21087 0.388194,-0.30764 1.999921,-0.37322 0.91202,-0.0371 2.227685,-0.10931 2.923698,-0.16046 1.19766,-0.088 6.326225,-0.29034 10.342069,-0.40799 1.188203,-0.0348 2.3699,-0.0137 3.360071,0.06 2.28063,0.16986 18.961396,0.25129 22.473246,0.10972 1.07371,-0.0433 3.38023,0.14676 3.79667,0.31281 0.17149,0.0684 0.0598,0.088 -0.52386,0.0917 z m -0.0399,10.47564 c -0.29215,0.28673 -0.45707,0.38181 -0.66223,0.38181 -0.3237,0 -0.40946,-0.11434 -0.48,-0.64001 -0.0789,-0.58783 -0.10745,-0.64847 -0.24988,-0.53027 -0.0665,0.0552 -0.10071,0.17741 -0.0761,0.27165 0.0605,0.23135 -0.24269,0.23202 -0.45176,9.7e-4 -0.14779,-0.16331 -0.14624,-0.18315 0.0379,-0.48111 0.24247,-0.39232 0.46677,-0.52073 0.69565,-0.39824 0.26106,0.13972 0.44085,0.44824 0.44085,0.75651 0,0.56073 0.0668,0.58618 0.54304,0.20697 0.2404,-0.19141 0.47184,-0.32655 0.51432,-0.3003 0.1702,0.1052 0.0577,0.36934 -0.31184,0.73199 z m 0.20148,-65.9761 c -0.0491,0.11999 -0.14357,0.74837 -0.20998,1.39639 -0.0664,0.64801 -0.16121,1.38976 -0.21068,1.64832 -0.0495,0.25855 -0.0921,0.96547 -0.0947,1.57094 -0.003,0.60546 -0.0374,1.41289 -0.0773,1.79429 -0.0478,0.45557 -0.0414,0.74351 0.0185,0.83937 0.0501,0.0803 0.0683,0.20554 0.0403,0.27841 -0.0601,0.15649 -0.19704,0.14729 -2.4204,-0.16271 -0.84002,-0.11711 -2.03787,-0.25206 -2.66189,-0.29988 -0.62401,-0.0479 -1.64512,-0.12738 -2.26914,-0.17681 -5.99445,-0.47482 -7.63376,-0.55157 -10.342042,-0.48421 -1.272031,0.0316 -2.587705,0.095 -2.923718,0.14086 -0.336003,0.0458 -0.913547,0.10969 -1.28341,0.1419 -0.660491,0.0575 -0.674308,0.0546 -0.773691,-0.16354 -0.07948,-0.17443 -0.06942,-0.40653 0.0467,-1.08175 0.108588,-0.63115 0.168147,-1.75284 0.224031,-4.21974 0.05086,-2.2432 0.121689,-3.66166 0.213222,-4.26738 0.127809,-0.845846 0.127055,-0.918396 -0.01122,-1.071176 -0.233342,-0.25783 -0.04573,-0.34877 0.901984,-0.43725 1.347446,-0.1258 3.582411,-0.12477 8.013434,0.004 3.71677,0.10773 8.5338,0.0849 8.96834,-0.0425 0.10341,-0.0304 0.25853,0.0718 0.47477,0.31272 0.17664,0.19677 0.53946,0.502656 0.80625,0.679746 0.2668,0.17708 0.87936,0.69633 1.36125,1.15387 1.17796,1.11844 1.80629,1.661 1.92355,1.661 0.13541,0 0.38732,0.29336 0.38063,0.44325 -0.003,0.0683 -0.0456,0.22222 -0.0947,0.34223 z m -1.05609,-0.66686 c -0.25202,-0.23972 -0.85094,-0.80922 -1.33095,-1.26555 -0.48001,-0.45631 -1.12802,-1.00907 -1.44004,-1.22831 -0.312,-0.21926 -0.66293,-0.50154 -0.77982,-0.627306 l -0.21254,-0.22866 -2.92935,0.0525 c -1.85998,0.0333 -4.4268,0.006 -7.03127,-0.0761 -3.796097,-0.11902 -6.597497,-0.0943 -7.09192,0.0627 -0.143231,0.0454 -0.194233,0.243536 -0.355998,1.382616 -0.154369,1.08695 -0.189398,1.75154 -0.19197,3.64233 -0.0029,2.24226 -0.09321,4.18203 -0.222668,4.79203 l -0.06314,0.29737 0.428213,-0.0593 c 1.413569,-0.19579 4.211855,-0.32876 5.795611,-0.2754 4.500392,0.15163 11.196252,0.66307 13.780002,1.05255 1.15352,0.17389 1.38153,0.16683 1.44872,-0.0449 0.0301,-0.0948 0.0873,-0.89006 0.12723,-1.76732 0.0399,-0.87727 0.13827,-2.14486 0.2186,-2.81687 0.24204,-2.0249 0.28259,-2.35423 0.29631,-2.40646 0.007,-0.0275 -0.19304,-0.24617 -0.44505,-0.4859 z m -2.48007,2.70327 c -0.032,0.032 -0.20872,0.0582 -0.39274,0.0582 -0.39751,0 -0.67724,0.23632 -0.69728,0.5891 -0.008,0.132 -0.0188,0.3382 -0.025,0.45819 -0.0371,0.71239 -0.42025,0.41215 -0.62004,-0.4859 -0.14892,-0.6694 -0.12688,-0.82284 0.11837,-0.8238 0.0811,-3e-4 0.26539,-0.0786 0.4094,-0.17396 0.32005,-0.21197 0.93344,-0.2323 1.12834,-0.0374 0.14405,0.14405 0.17701,0.31754 0.079,0.4156 z m -2.38934,1.32603 c -0.0892,0.0551 -0.45087,-0.1404 -0.67764,-0.36633 -0.0939,-0.0935 -0.15858,-0.0809 -0.36389,0.0709 -0.33973,0.25117 -0.65995,0.16507 -0.84731,-0.22781 -0.12647,-0.2652 -0.12826,-0.33469 -0.0162,-0.62906 0.11425,-0.3002 0.58128,-0.72645 0.79594,-0.72645 0.18688,0 0.67656,0.59948 0.67656,0.82826 0,0.15164 0.0927,0.31616 0.26183,0.46454 0.26474,0.2323 0.3377,0.48277 0.17071,0.58598 z m -1.11328,-1.18058 c -0.11364,0 -0.27928,0.19956 -0.27928,0.33645 0,0.10079 0.036,0.0944 0.17455,-0.0309 0.17929,-0.16226 0.22839,-0.30546 0.10473,-0.30546 z m -1.64659,0.98912 c -0.032,0.032 -0.21261,0.0582 -0.40136,0.0582 -0.27137,0 -0.39615,-0.0568 -0.59638,-0.27106 -0.13925,-0.14908 -0.2532,-0.32313 -0.2532,-0.38679 0,-0.0636 -0.11782,-0.19964 -0.26182,-0.30217 -0.33153,-0.23608 -0.33206,-0.42271 -0.002,-0.6982 0.22518,-0.18793 0.27405,-0.3087 0.3524,-0.8709 0.10141,-0.72763 0.1866,-0.87742 0.41562,-0.7308 0.12161,0.0778 0.15032,0.22897 0.15032,0.79105 0,0.45758 0.0406,0.74401 0.11886,0.83889 0.15624,0.18939 0.0729,0.38745 -0.17808,0.42318 -0.11045,0.0158 -0.21345,0.0949 -0.22889,0.17596 -0.0393,0.20589 0.3039,0.52326 0.53365,0.49359 0.10496,-0.0135 0.23993,0.006 0.29994,0.0433 0.11633,0.0724 0.1475,0.33921 0.0508,0.43581 z m -2.50958,0.13978 c -0.17398,0.14438 -0.48685,-0.0618 -0.48685,-0.32078 0,-0.15141 0.05,-0.19719 0.21512,-0.19719 0.12335,0 0.25365,0.072 0.30546,0.1688 0.11549,0.2158 0.11448,0.22616 -0.0337,0.34917 z m -1.09079,0.13226 c -0.17708,0.10945 -0.44333,-0.4045 -0.4447,-0.85838 -0.002,-0.63809 -0.10197,-0.76163 -0.39509,-0.48777 -0.27046,0.2527 -0.48346,0.6335 -0.55983,1.00085 -0.0676,0.32485 -0.30141,0.38261 -0.46548,0.11496 -0.0976,-0.15919 -0.10934,-0.37647 -0.0558,-1.03082 0.0664,-0.81224 -0.004,-1.69839 -0.18966,-2.38933 -0.107764,-0.40083 0.002,-0.5919 0.2514,-0.43708 0.26004,0.16149 0.37069,0.51899 0.42728,1.38052 0.0302,0.45923 0.0706,0.83497 0.0898,0.83497 0.0192,0 0.18504,-0.0863 0.36842,-0.19189 0.32331,-0.18608 0.3406,-0.1872 0.57005,-0.0368 0.13014,0.0853 0.29226,0.28818 0.36024,0.45091 0.13745,0.32895 0.17009,1.57159 0.0433,1.64991 z m -2.508495,-0.37875 c -0.13623,0.5097 -1.687674,0.42273 -1.687674,-0.0946 0,-0.19727 0.145532,-0.25683 0.436374,-0.17859 0.120006,0.0323 0.316376,0.0317 0.436373,-9.7e-4 l 0.218191,-0.0598 -0.243852,-0.0988 c -0.134123,-0.0543 -0.341224,-0.12327 -0.460235,-0.15313 -0.243223,-0.061 -0.474129,-0.34288 -0.474129,-0.57872 0,-0.1856 0.451823,-0.48061 0.851891,-0.55622 0.339484,-0.0641 0.544507,0.0749 0.544507,0.36943 0,0.16181 -0.04689,0.20749 -0.213038,0.20749 -0.31889,0 -0.343294,0.13984 -0.04593,0.26302 0.25031,0.10369 0.706581,0.55775 0.685194,0.68189 -0.0058,0.0323 -0.02707,0.12201 -0.04767,0.19932 z m -2.513981,0.12571 c -0.166465,0.0695 -0.504218,0.12645 -0.750564,0.12645 -0.39301,0 -0.484271,-0.0363 -0.744637,-0.29673 -0.222852,-0.22285 -0.29673,-0.37175 -0.29673,-0.59802 0,-0.56285 0.713766,-1.28976 1.135133,-1.15603 0.262841,0.0834 0.523081,0.39534 0.523081,0.62695 0,0.11082 -0.147214,0.36443 -0.327147,0.5636 -0.248686,0.27527 -0.28532,0.35053 -0.152735,0.31382 0.49862,-0.13805 0.680815,-0.15126 0.793696,-0.0576 0.204529,0.16974 0.138677,0.34433 -0.180097,0.47753 z m -1.758574,-3.45181 c -0.374832,1.67047 -0.428068,2.66115 -0.155162,2.88764 0.067,0.0556 0.121786,0.17249 0.121786,0.25979 0,0.29216 -0.19635,0.29155 -0.458118,-9.7e-4 l -0.255154,-0.28557 -0.276106,0.25592 c -0.371981,0.34479 -0.714326,0.54918 -0.919842,0.54918 -0.0934,0 -0.275642,-0.12572 -0.404941,-0.27938 -0.193555,-0.23002 -0.227076,-0.33904 -0.189775,-0.61716 0.05279,-0.39331 0.399932,-0.95612 0.7186,-1.16493 0.192347,-0.12603 0.252099,-0.12971 0.443402,-0.0274 0.121602,0.0651 0.275342,0.21804 0.341649,0.33991 0.117735,0.21641 0.120645,0.21242 0.124619,-0.17115 0.0048,-0.49138 0.315448,-2.31814 0.448536,-2.64006 0.116014,-0.28065 0.379599,-0.31736 0.511334,-0.0712 0.110812,0.20706 0.108182,0.25714 -0.05086,0.96575 z m -1.442923,2.0946 c -0.119107,0 -0.504024,0.46677 -0.591245,0.71697 -0.128756,0.36936 0.144034,0.31899 0.611694,-0.11296 0.369534,-0.3413 0.378449,-0.36111 0.216026,-0.48 -0.0932,-0.0682 -0.199589,-0.12401 -0.236475,-0.12401 z M 112.7649,93.202183 c -0.0601,0.04776 -0.38912,0.113365 -0.73136,0.145851 -0.50785,0.04825 -0.64777,0.03355 -0.7611,-0.07977 -0.12695,-0.126949 -0.15931,-0.12544 -0.37757,0.0176 -0.30391,0.199134 -1.34946,0.213637 -1.72221,0.02388 -0.39242,-0.199763 -0.60063,-0.543182 -0.61029,-1.006588 -0.008,-0.362563 0.0247,-0.434903 0.29368,-0.659534 0.51525,-0.430224 1.28573,-0.301574 1.49532,0.249682 0.11284,0.296797 -0.14497,0.574847 -0.6691,0.721597 -0.2126,0.05956 -0.38655,0.138135 -0.38655,0.174692 0,0.129047 0.47731,0.183732 1.09686,0.125672 0.37894,-0.03548 0.64768,-0.02514 0.6794,0.0262 0.0464,0.07512 0.30428,0.04129 0.90744,-0.119214 0.18494,-0.04921 0.11779,-0.154011 -0.29182,-0.455429 -0.44982,-0.331005 -0.60556,-0.603959 -0.52585,-0.921583 0.0415,-0.16513 0.13035,-0.23485 0.35259,-0.276551 0.39282,-0.07367 0.60816,0.0039 0.75044,0.269503 0.16456,0.307481 -0.01,0.488264 -0.25598,0.265461 -0.16356,-0.148026 -0.35665,-0.12748 -0.35665,0.038 0,0.04293 0.18233,0.21735 0.40519,0.387508 0.37527,0.286548 0.81665,0.787411 0.81665,0.926726 0,0.03278 -0.0491,0.09869 -0.10909,0.146411 z m -3.49581,-1.208256 c -0.16232,0.162316 0.0111,0.210524 0.30748,0.08547 l 0.28644,-0.120838 -0.25064,-0.02862 c -0.13784,-0.01576 -0.29233,0.01305 -0.34328,0.06401 z m 2.96426,78.960283 c -0.52041,0.78723 -0.62092,0.89886 -0.81188,0.90167 -0.23049,0.003 -0.33413,-0.23198 -0.18621,-0.42288 0.47636,-0.61478 1.07301,-1.27624 1.1512,-1.27624 0.20128,0 0.13057,0.36832 -0.15311,0.79745 z m -1.09965,2.21362 c -0.21579,0.40794 -0.47003,0.62793 -0.64714,0.55997 -0.18743,-0.0719 -0.17872,-0.20466 0.031,-0.47278 0.25667,-0.32813 0.2264,-0.52365 -0.081,-0.52365 -0.14058,0 -0.31719,-0.0616 -0.39247,-0.13688 -0.0753,-0.0753 -0.20573,-0.11545 -0.28988,-0.0892 -0.0841,0.0262 -0.20836,0.0129 -0.27602,-0.0296 -0.10338,-0.0649 -0.10482,-0.12115 -0.009,-0.35242 0.11237,-0.27127 0.5824,-0.70094 0.7668,-0.70094 0.22069,0 0.37388,0.2775 0.31791,0.57587 -0.0532,0.28327 -0.0439,0.29687 0.20231,0.29687 0.26877,0 0.54968,0.2293 0.54303,0.44325 -0.002,0.0683 -0.0766,0.26155 -0.16549,0.4296 z m -0.61613,-52.59793 c -0.57883,0.18265 -6.31955,0.47516 -7.22268,0.368 -0.69024,-0.0819 -1.1557,-0.2113 -1.1557,-0.32134 0,-0.0626 0.28868,-0.0743 0.89457,-0.0365 0.77106,0.048 5.5277,-0.13908 6.82925,-0.26874 0.30705,-0.0305 0.4881,-0.005 0.61092,0.0869 0.14266,0.10656 0.15064,0.13792 0.0436,0.17168 z m -0.70853,53.99424 c -0.12029,0.30324 -0.60352,0.78547 -0.78711,0.78547 -0.27465,0 -0.25976,-0.16007 0.053,-0.56982 0.36359,-0.47634 0.40522,-0.70352 0.11168,-0.60947 -0.49146,0.15747 -0.74074,0.15058 -0.8629,-0.0239 -0.0664,-0.0949 -0.19846,-0.18738 -0.2934,-0.20566 -0.29518,-0.0569 -0.22019,-0.27774 0.23148,-0.68173 0.35492,-0.31747 0.46144,-0.3712 0.58148,-0.29333 0.10267,0.0666 0.14229,0.20052 0.13143,0.44431 -0.0136,0.30559 0.006,0.34347 0.15333,0.3048 0.25055,-0.0656 0.66743,0.13823 0.72546,0.35458 0.0619,0.23074 0.0624,0.2253 -0.0445,0.49468 z m -0.48981,-8.48748 c -0.0803,0.23044 -0.54716,0.056 -0.54716,-0.20448 0,-0.13026 0.22118,-0.22019 0.38599,-0.15695 0.14641,0.0562 0.21443,0.20873 0.16117,0.36143 z m -0.64451,4.56011 c -0.0536,0 -0.35863,-0.17368 -0.67795,-0.38597 -0.46697,-0.31044 -0.72547,-0.41376 -1.32086,-0.5279 -1.13061,-0.21677 -1.13301,-0.21745 -1.13301,-0.32258 0,-0.14026 1.29649,-0.0295 1.7191,0.14695 0.18252,0.0762 0.59696,0.31791 0.92096,0.53717 0.55625,0.37642 0.71287,0.55233 0.49176,0.55233 z m -0.20925,-3.8946 c -0.14638,0.19739 -0.3916,0.12978 -0.3916,-0.10796 0,-0.21065 0.25633,-0.31754 0.4029,-0.16802 0.0887,0.0904 0.0864,0.14419 -0.0113,0.27598 z m -0.58295,-73.246622 c -0.11627,0.06265 -0.54226,0.111373 -1.00628,0.114979 -0.7539,0.0058 -0.81899,-0.0077 -1.03199,-0.220425 -0.14063,-0.140214 -0.24543,-0.361432 -0.27474,-0.579923 -0.0433,-0.32267 -0.0157,-0.387624 0.31887,-0.750564 0.37536,-0.407222 1.02045,-0.732096 1.26632,-0.637741 0.19655,0.07542 0.36196,0.474004 0.24519,0.590781 -0.0644,0.06439 -0.14463,0.06536 -0.26099,0.0029 -0.38681,-0.207015 -1.32868,0.681559 -1.06244,1.002353 0.0866,0.104344 0.29335,0.125015 1.02838,0.102826 0.80576,-0.02437 0.92367,-0.0097 0.94965,0.119059 0.0171,0.0845 -0.0559,0.192966 -0.17197,0.255561 z m -0.24605,82.325582 c -0.14176,0.18734 -0.2815,0.41545 -0.31052,0.50691 -0.0652,0.20542 -0.50275,0.18418 -0.5426,-0.0264 -0.0399,-0.2109 0.79085,-1.05807 0.97015,-0.98927 0.19298,0.0741 0.18472,0.10994 -0.11703,0.50872 z m -0.19922,-8.21439 c -0.0667,0.0256 -0.17254,0.0149 -0.23518,-0.0239 -0.15841,-0.0979 -0.0361,-0.36935 0.15027,-0.33346 0.18841,0.0362 0.24968,0.29409 0.0849,0.35731 z m -0.55875,-39.35405 c -0.0308,0.0308 -0.14176,0.0558 -0.2468,0.0558 -0.22316,0 -0.82096,0.60891 -1.54228,1.57096 -1.39988,1.86699 -2.94374,3.27464 -7.706945,7.02692 -3.096883,2.43962 -3.295195,2.60737 -5.526757,4.67489 -2.50763,2.32329 -3.496844,3.14494 -6.255344,5.19582 -1.397229,1.03879 -2.002358,1.51318 -2.617987,2.05232 -0.144139,0.12624 -1.165956,1.02953 -2.270681,2.00732 -1.104734,0.97779 -2.341861,2.05139 -2.74916,2.38579 -1.230127,1.00991 -2.689612,2.28905 -3.776663,3.30997 -1.084372,1.0184 -1.28399,1.17512 -1.28399,1.0081 0,-0.25877 2.354372,-2.44565 4.931026,-4.58026 0.576016,-0.47719 1.265668,-1.06439 1.53256,-1.30491 0.266892,-0.24051 0.639984,-0.57196 0.829102,-0.73658 0.189128,-0.16461 0.697319,-0.61833 1.129331,-1.00827 1.388131,-1.25295 2.843565,-2.43563 4.340971,-3.52746 2.298874,-1.67622 3.122523,-2.35336 5.159272,-4.24155 2.834148,-2.62744 3.513474,-3.20858 6.121947,-5.23717 3.356938,-2.61066 6.063038,-4.91883 6.957048,-5.93401 0.21135,-0.24 0.74899,-0.91756 1.19474,-1.50568 0.9038,-1.19245 1.14219,-1.41801 1.49868,-1.41801 0.24612,0 0.38584,0.10209 0.28193,0.20601 z m -0.17503,50.02062 c -0.19501,0.36135 -0.36781,0.47448 -0.72444,0.47434 -0.37686,-1.6e-4 -0.6274,-0.20104 -0.9073,-0.72745 -0.42521,-0.79971 -0.37776,-1.97239 0.0798,-1.97239 0.28509,0 0.32448,0.10636 0.16085,0.43438 -0.15218,0.30503 -0.11914,0.89766 0.0696,1.24918 0.10118,0.18841 0.10641,0.18581 0.22739,-0.11261 0.1771,-0.43691 0.36081,-0.61093 0.64497,-0.61093 0.53685,0 0.77298,0.66539 0.4491,1.26548 z m -0.3658,-0.77957 c -0.10325,-0.0638 -0.34995,0.32159 -0.41545,0.64904 -0.0841,0.4204 0.2716,0.29769 0.40211,-0.13873 0.10256,-0.34297 0.10545,-0.45339 0.0133,-0.51031 z m -0.29319,8.62865 c -0.0599,-0.0241 -0.168,-0.15685 -0.24,-0.29501 -1.03212,-1.98038 -1.40589,-2.76753 -1.51803,-3.19696 -0.25759,-0.98643 0.16126,-0.77432 0.46852,0.23726 0.10522,0.34643 0.46296,1.17211 0.79496,1.83486 0.59742,1.19254 0.7062,1.50485 0.49455,1.41985 z m -1.00284,-16.79474 c -0.13049,0.168 -0.57834,0.65893 -0.99523,1.09094 -0.41688,0.432 -0.84759,0.90329 -0.95713,1.04729 -0.10953,0.14401 -0.38771,0.48306 -0.61818,0.75345 l -0.41902,0.49163 0.2574,1.2975 c 0.59492,2.9988 1.08677,4.94636 1.75846,6.96288 0.17164,0.51527 0.22986,0.80725 0.17243,0.86468 -0.21971,0.21971 -0.46811,-0.34849 -1.00426,-2.29722 -0.12546,-0.45601 -0.2641,-0.94693 -0.30809,-1.09094 -0.10266,-0.33607 -0.41828,-1.66821 -0.56866,-2.40005 -0.32974,-1.60488 -0.66851,-3.18271 -0.68739,-3.20159 -0.0117,-0.0117 -0.64783,0.0924 -1.41357,0.23137 -0.765743,0.13898 -1.902819,0.29419 -2.526831,0.34492 -0.624011,0.0508 -1.331366,0.14559 -1.571883,0.21079 -0.431161,0.11688 -0.828173,0.0539 -0.828173,-0.13155 0,-0.0416 0.324004,-0.47789 0.72002,-0.96948 0.396007,-0.4916 0.955655,-1.23904 1.243663,-1.661 0.288008,-0.42194 0.68562,-0.99338 0.883585,-1.26985 l 0.359942,-0.50267 1.778287,-0.11822 c 2.6429,-0.1757 3.48015,-0.2003 3.48015,-0.10228 0,0.18916 -2.42411,0.53577 -3.940219,0.56339 l -0.92924,0.0169 -0.292601,0.41076 c -0.61881,0.86869 -1.535693,2.07964 -2.028221,2.67872 -0.282575,0.3437 -0.498581,0.63943 -0.480008,0.65715 0.01856,0.0178 0.30867,-0.0213 0.644674,-0.0866 0.336013,-0.0654 0.879079,-0.12036 1.206835,-0.12213 0.823697,-0.005 2.63013,-0.16449 3.1569,-0.27971 0.51594,-0.11285 0.57872,-0.15734 1.02638,-0.72716 0.60365,-0.76837 2.56249,-2.72024 2.9228,-2.91239 0.24736,-0.13192 0.24543,-0.12059 -0.0428,0.25052 z m -0.0808,-77.470901 c -0.032,0.032 -0.14882,0.05821 -0.25959,0.05821 -0.25153,0 -0.4144,0.297338 -0.55539,1.013975 -0.13478,0.685069 -0.20772,0.805375 -0.41166,0.678891 -0.11615,-0.07203 -0.16935,-0.258751 -0.21135,-0.741833 -0.0308,-0.35507 -0.0845,-0.753581 -0.11927,-0.885577 -0.0739,-0.280699 0.0695,-0.323356 0.32126,-0.09553 0.0878,0.07948 0.1596,0.102091 0.1596,0.05037 0,-0.164714 0.44597,-0.631147 0.60348,-0.631147 0.0833,0 0.23696,0.09089 0.34134,0.201996 0.20467,0.217863 0.22098,0.261343 0.13158,0.350748 z m -0.73435,35.840831 c -0.39105,0.86386 -0.98338,1.14281 -1.26604,0.59622 -0.15889,-0.30727 -0.13729,-0.63169 0.11038,-1.65783 0.16385,-0.67885 0.38582,-0.91901 0.76213,-0.82456 0.53281,0.13372 0.73913,1.12267 0.39353,1.88617 z m -0.25555,-1.44051 c -0.3339,-0.20636 -0.65571,0.41338 -0.75935,1.46233 -0.04,0.40506 -0.0249,0.50183 0.0782,0.50183 0.17341,0 0.46949,-0.32835 0.63014,-0.69882 0.15013,-0.34619 0.18385,-1.18323 0.051,-1.26534 z m -1.1994,-32.821951 c -0.12268,0.122685 -0.28331,0.02736 -0.46608,-0.276522 -0.10825,-0.18 -0.20803,-0.342027 -0.22172,-0.360059 -0.0137,-0.01798 -0.12817,0.09001 -0.25442,0.240004 -0.44088,0.523951 -0.97754,0.319267 -1.29167,-0.492635 -0.16188,-0.418428 -0.19312,-1.201352 -0.0514,-1.288931 0.18948,-0.117106 0.40866,0.217476 0.41707,0.636678 0.0112,0.560005 0.0892,0.870812 0.23236,0.92573 0.16978,0.06517 0.6253,-0.482328 0.75134,-0.903009 0.17823,-0.59489 0.4424,-0.432525 0.5886,0.36178 0.05,0.271775 0.1485,0.631853 0.21883,0.800173 0.0703,0.168321 0.10503,0.328878 0.0771,0.356791 z m -0.56277,35.379581 c -0.15792,0.15792 -1.07541,0.13397 -1.24179,-0.0324 -0.16942,-0.16941 -0.1705,-0.22177 -0.009,-0.43528 0.25609,-0.33857 0.1734,-0.47487 -0.28813,-0.47487 -0.4618,0 -0.55016,-0.0418 -0.47921,-0.22672 0.0336,-0.0873 0.20676,-0.12238 0.60491,-0.12238 0.54087,0 0.55794,-0.007 0.55794,-0.22407 0,-0.19154 -0.0285,-0.21556 -0.19636,-0.16546 -0.108,0.0322 -0.28893,0.11708 -0.40206,0.18856 -0.25827,0.16315 -0.45774,0.0238 -0.30732,-0.21466 0.11242,-0.17821 0.73731,-0.37473 0.98536,-0.30986 0.34925,0.0914 0.42637,0.7897 0.13466,1.21956 -0.32535,0.47945 -0.2899,0.55323 0.26574,0.55323 0.48469,0 0.56643,0.0532 0.37528,0.24437 z M 99.286677,92.776755 c -0.271562,0.344666 -0.993526,0.707055 -1.411026,0.708273 -0.433134,9.67e-4 -0.852955,-0.23338 -1.010108,-0.564549 -0.261594,-0.551275 -0.155984,-0.986362 0.357545,-1.47305 0.26547,-0.251597 0.403393,-0.316608 0.672886,-0.317218 0.525904,-9.66e-4 1.017311,0.183143 1.334818,0.50065 0.366237,0.366237 0.38395,0.729516 0.05588,1.145894 z m -0.432322,-0.942766 c -0.267782,-0.210631 -0.468241,-0.234232 -0.468241,-0.05511 0,0.20481 -0.173638,0.251219 -0.34835,0.09311 -0.202509,-0.183269 -0.457325,-0.113481 -0.696671,0.1908 -0.396896,0.504556 -0.07116,1.072025 0.539643,0.940155 0.616857,-0.133175 1.203577,-0.563573 1.203577,-0.882898 0,-0.05782 -0.103483,-0.186555 -0.229958,-0.286045 z m -2.566173,79.460361 c -0.241348,0.21842 -0.982185,0.23661 -1.024804,0.0251 -0.02079,-0.10294 0.09272,-0.20042 0.382413,-0.32857 l 0.411911,-0.18221 -0.192009,-0.20439 c -0.10561,-0.1124 -0.215735,-0.35057 -0.244731,-0.52926 -0.04457,-0.27439 -0.08054,-0.31759 -0.232008,-0.27799 -0.09861,0.0258 -0.224505,0.01 -0.279781,-0.0365 -0.07406,-0.0615 -0.114892,0.13598 -0.155258,0.75057 -0.06004,0.91446 -0.119794,1.11088 -0.261014,0.85852 -0.113934,-0.20358 -0.162103,-2.10961 -0.05501,-2.17581 0.04351,-0.0269 0.156022,-0.008 0.250098,0.0427 0.10006,0.0536 0.191419,0.0586 0.220096,0.0122 0.08228,-0.1331 0.888225,-0.20696 1.08852,-0.0998 0.243784,0.13047 0.24858,0.5733 0.0077,0.70227 -0.228575,0.12232 -0.220183,0.22602 0.0436,0.53956 0.264282,0.31408 0.280864,0.68579 0.04032,0.90349 z m -0.248203,-50.36692 c -0.118807,0.0734 -0.882946,-0.1057 -1.125309,-0.2638 -0.316714,-0.2066 -1.161325,-0.23814 -2.986892,-0.11153 -2.160208,0.14981 -3.360603,0.15448 -3.50132,0.0136 -0.08334,-0.0834 -0.07957,-0.11442 0.0175,-0.14433 0.280805,-0.0864 3.536417,-0.27138 4.792891,-0.2722 1.274834,-9.7e-4 1.382919,0.0125 1.876405,0.23058 0.288008,0.12731 0.618751,0.24513 0.734997,0.26183 0.224708,0.0323 0.33524,0.19709 0.19167,0.28582 z M 95.640918,93.446209 c -0.182795,0.182795 -0.296121,0.214218 -0.77256,0.214218 -0.672442,0 -1.134031,-0.248812 -1.179067,-0.635556 -0.03326,-0.285495 0.0048,-0.291634 0.327533,-0.05298 0.367649,0.271813 0.95551,0.315863 1.228425,0.09204 0.290474,-0.238215 0.196959,-0.381504 -0.590867,-0.905387 -0.624621,-0.415344 -0.775983,-0.625733 -0.676261,-0.939934 0.104131,-0.328075 1.101699,-0.473906 1.159652,-0.169529 0.01808,0.09485 -0.08373,0.170815 -0.326392,0.243504 -0.193953,0.05811 -0.352634,0.139257 -0.352634,0.180329 0,0.04109 0.195287,0.199985 0.433966,0.353146 0.91902,0.589736 1.190572,1.177732 0.748205,1.6201 z m -2.199414,77.044141 c -0.03142,0.0315 -0.08112,0.20451 -0.110416,0.38452 -0.038,0.2335 -0.102854,0.33653 -0.226428,0.35946 -0.09524,0.0177 -0.228692,0.077 -0.296498,0.13185 -0.09936,0.0804 -0.06546,0.10817 0.174547,0.14334 0.224254,0.0329 0.304619,0.0914 0.32531,0.23692 0.05366,0.37728 -0.790737,0.37787 -0.938985,6.5e-4 -0.04196,-0.10665 -0.158353,-0.26227 -0.258742,-0.3458 -0.256034,-0.21306 -0.236252,-0.48587 0.04032,-0.55528 0.193179,-0.0484 0.215417,-0.0894 0.167296,-0.30854 -0.04989,-0.22739 -0.02456,-0.26558 0.25442,-0.38213 0.426056,-0.17802 0.727359,-0.16384 0.836092,0.0394 0.1062,0.19844 0.108636,0.22018 0.03316,0.29569 z m -0.988199,-9.49914 c -0.09495,0.0859 -0.242247,0.16121 -0.327282,0.16727 -0.08499,0.006 -0.322487,0.12439 -0.527674,0.26301 -0.519726,0.35109 -1.144646,0.40993 -1.403455,0.13214 -0.332136,-0.35651 -0.214788,-0.84853 0.248106,-1.04027 0.232404,-0.0963 0.289932,-0.0904 0.439708,0.0452 0.09475,0.0858 0.172324,0.24805 0.172324,0.36061 0,0.11842 0.05211,0.20467 0.123671,0.20467 0.207682,0 0.923622,-0.33695 0.923622,-0.43469 0,-0.0505 -0.133775,-0.15558 -0.297271,-0.23355 -0.316994,-0.15116 -0.547146,-0.4749 -0.449706,-0.63257 0.09682,-0.15665 0.354248,-0.109 0.54443,0.10078 0.09791,0.108 0.30137,0.30082 0.452113,0.42849 0.317807,0.26917 0.34194,0.42124 0.101414,0.63892 z m -1.969755,1.27066 c -0.227106,0.18849 -0.658867,-0.0965 -1.249087,-0.82449 -0.569239,-0.70212 -0.630228,-0.83721 -0.377984,-0.83721 0.208842,0 0.354596,0.12902 0.752246,0.6659 0.182379,0.24624 0.484233,0.53348 0.670769,0.63832 0.186536,0.10485 0.339165,0.20293 0.339165,0.21799 0,0.0151 -0.06082,0.0778 -0.135109,0.13949 z m -1.08853,0.73946 c -0.07706,0.0476 -0.2296,-0.0497 -0.761867,-0.48586 -0.154862,-0.12691 -0.135234,-0.34435 0.03104,-0.34435 0.18699,0 0.819849,0.50695 0.819849,0.65675 0,0.0652 -0.04013,0.14319 -0.08905,0.17346 z m -0.596108,0.60178 c -0.0408,0.0252 -0.199918,-0.0468 -0.353523,-0.16016 -0.242353,-0.17881 -0.313582,-0.19309 -0.538889,-0.10804 -0.182843,0.069 -0.302608,0.0709 -0.404941,0.007 -0.222522,-0.14037 -0.23807,-0.3036 -0.03403,-0.35696 0.24156,-0.0631 0.235053,-0.0919 -0.122559,-0.54181 -0.167538,-0.21075 -0.304619,-0.43658 -0.304619,-0.50183 0,-0.25722 0.349984,-0.0982 0.697618,0.31706 0.311368,0.37188 0.405212,0.43258 0.640874,0.41455 0.240893,-0.0185 0.272626,0.004 0.248899,0.17462 -0.01499,0.10766 0.03413,0.28332 0.109091,0.39034 0.154784,0.22099 0.168224,0.30026 0.06207,0.36588 z M 88.566024,92.789063 c -0.172517,0.143183 -3.925965,0.07687 -4.074813,-0.07193 -0.169239,-0.169249 0.0963,-0.389452 0.397128,-0.329293 0.141771,0.02833 0.999473,0.05308 1.905991,0.05501 1.920475,0.0039 2.133812,0.04573 1.771694,0.346242 z m -0.263401,68.828097 c -0.151933,0.0583 -0.476759,-0.19784 -0.476759,-0.37595 0,-0.17072 0.298208,-0.14373 0.466481,0.0422 0.179323,0.19814 0.18147,0.26805 0.01025,0.33373 z m -0.526263,2.7938 c -0.07522,0.0289 -0.181266,0.008 -0.235643,-0.0464 -0.191109,-0.19111 -0.412965,-0.11555 -0.414386,0.14114 -0.0019,0.32758 -0.111083,0.47655 -0.297155,0.40515 -0.122482,-0.047 -0.150066,-0.0166 -0.136086,0.14978 0.04467,0.53163 -0.05105,0.55063 -0.581914,0.11561 -0.417606,-0.3422 -0.466965,-0.46774 -0.210263,-0.53487 0.0933,-0.0244 0.181702,-0.12873 0.196417,-0.23184 0.02175,-0.15251 0.07861,-0.18348 0.304871,-0.16607 0.255125,0.0196 0.280351,-0.002 0.305412,-0.26182 0.02504,-0.25943 0.05134,-0.28213 0.313108,-0.27013 0.283251,0.013 0.892412,0.39618 0.892412,0.56137 0,0.0471 -0.06149,0.10919 -0.136773,0.13806 z m -1.645886,3.28755 c -0.08653,0.0332 -0.245302,-0.089 -0.461878,-0.35561 -0.181538,-0.22341 -0.53625,-0.60777 -0.788253,-0.85413 -0.252012,-0.24637 -0.458195,-0.49208 -0.458195,-0.54603 0,-0.19277 0.798994,-0.717 1.092794,-0.717 0.537255,0 0.620744,0.48757 0.1272,0.74279 -0.313088,0.1619 -0.347248,0.16181 -0.347248,-9.7e-4 0,-0.14794 -0.07532,-0.16346 -0.251519,-0.0518 -0.09456,0.0599 -0.07029,0.10937 0.113026,0.22946 0.128496,0.0842 0.41838,0.43214 0.644171,0.77321 0.50795,0.76726 0.487771,0.71954 0.329902,0.78012 z m -0.264552,-64.08565 c -0.07551,0.0759 -0.179207,0.51752 -0.255338,1.08782 -0.119001,0.89135 -0.182205,1.44973 -0.424751,3.75282 -0.05057,0.48 -0.09582,1.12802 -0.100564,1.44003 l -0.0087,0.56728 -0.698151,0.0262 c -0.383988,0.0144 -1.247984,-0.0181 -1.92,-0.0721 -2.740488,-0.22055 -13.905287,-0.40999 -15.62219,-0.26509 -0.576006,0.0486 -1.165114,0.11011 -1.309119,0.13663 -0.382528,0.0705 -0.480519,-0.0415 -0.50179,-0.57344 -0.02872,-0.71928 0.19049,-5.96337 0.282555,-6.75778 0.04448,-0.38401 0.120712,-1.14985 0.169365,-1.70185 0.04863,-0.55202 0.137555,-1.288396 0.197568,-1.636396 0.09591,-0.55614 0.131909,-0.63274 0.297339,-0.63274 0.103512,0 0.338159,-0.0627 0.521437,-0.13924 0.957617,-0.400117 7.848043,-0.427218 9.200458,-0.0362 0.401237,0.116 4.319409,0.11458 4.713995,-0.002 0.167682,-0.0494 0.81544,-0.112393 1.439461,-0.139939 0.882773,-0.03896 1.167049,-0.02388 1.280906,0.06807 0.08044,0.06497 0.368277,0.609039 0.63954,1.209059 0.271262,0.600006 0.587445,1.292826 0.702617,1.539596 0.115182,0.24677 0.504856,0.77045 0.865949,1.16376 0.361093,0.3933 0.656537,0.74264 0.656537,0.77629 0,0.0336 -0.05724,0.11871 -0.127171,0.189 z m -1.179173,-0.7716 c -0.541693,-0.55532 -0.81164,-1.0293 -1.492948,-2.62142 -0.212429,-0.496406 -0.446516,-0.935086 -0.520181,-0.974846 -0.07367,-0.0397 -0.544951,-0.0372 -1.047303,0.006 -2.788657,0.23803 -3.638449,0.27004 -4.70917,0.1774 -1.612481,-0.13952 -2.836342,-0.26447 -3.622535,-0.36983 -1.219665,-0.16344 -6.265699,0.0592 -6.722473,0.29662 -0.245408,0.12756 -0.272297,0.19046 -0.379164,0.887036 -0.149147,0.97218 -0.247168,2.25101 -0.358502,4.67697 -0.0496,1.08002 -0.129085,2.57055 -0.176722,3.31225 -0.05763,0.89746 -0.05743,1.37775 6.67e-4,1.43577 0.05811,0.0581 0.575369,0.0539 1.548939,-0.0127 0.803973,-0.0549 2.031228,-0.0831 2.727242,-0.0627 0.696023,0.0204 3.327353,0.0774 5.847416,0.12669 2.520053,0.0492 5.092481,0.12815 5.716493,0.17534 0.624012,0.0472 1.531826,0.11101 2.017364,0.14182 l 0.882791,0.056 0.05269,-0.46985 c 0.02901,-0.25842 0.08857,-0.78405 0.132363,-1.16806 0.0438,-0.384 0.125828,-1.20875 0.182254,-1.83277 0.122849,-1.3586 0.286973,-2.57847 0.429692,-3.19369 0.0068,-0.0285 -0.222369,-0.29209 -0.508849,-0.58577 z m -2.524066,2.37708 c -0.03848,0.0238 -0.232307,0.0692 -0.430736,0.10093 -0.573812,0.0918 -0.663982,0.20294 -0.713514,0.87979 -0.04196,0.57307 -0.05298,0.59729 -0.283599,0.62383 -0.282314,0.0325 -0.365116,-0.12483 -0.458292,-0.87054 l -0.06024,-0.48246 0.366218,-0.26933 c 0.396538,-0.2916 0.892924,-0.41665 1.299509,-0.32735 0.251818,0.0553 0.418341,0.26006 0.280689,0.34513 z m -2.249729,1.64966 c -0.11584,0.11584 -0.303478,0.0537 -0.509835,-0.16904 l -0.210592,-0.22722 -0.23339,0.18358 c -0.290861,0.2288 -0.659167,0.23584 -0.85776,0.0164 -0.147678,-0.16319 -0.15871,-0.159 -0.460051,0.17454 -0.217206,0.24042 -0.380199,0.34175 -0.549728,0.34175 -0.373363,0 -0.479814,-0.20678 -0.486379,-0.94484 -0.0048,-0.57419 -0.02968,-0.67202 -0.196369,-0.78272 -0.253637,-0.16841 -0.24129,-0.40317 0.02765,-0.52571 0.190839,-0.0869 0.219148,-0.15706 0.225829,-0.55947 0.0039,-0.25304 0.03365,-0.65643 0.06546,-0.89644 0.05482,-0.41383 0.07135,-0.43638 0.319634,-0.43638 h 0.261826 l -0.02417,0.8073 c -0.02379,0.79471 -0.02098,0.80729 0.179682,0.80729 0.255028,0 0.545048,0.20408 0.467747,0.32915 -0.03191,0.0515 -0.185154,0.12139 -0.340605,0.15511 -0.367678,0.0798 -0.410626,0.15888 -0.412221,0.7594 -9.67e-4,0.53058 0.03075,0.57113 0.29436,0.37153 0.118557,-0.0897 0.21037,-0.10036 0.327283,-0.0378 0.136288,0.0729 0.1628,0.0548 0.164405,-0.11247 0.0029,-0.31251 0.301302,-0.89251 0.566174,-1.10086 0.259176,-0.20387 0.727011,-0.24986 1.008589,-0.0992 0.14063,0.0752 0.169336,0.1882 0.171908,0.67639 0.0019,0.34254 0.05492,0.67668 0.127819,0.80421 0.138658,0.24256 0.15987,0.37833 0.07271,0.46547 z m -1.070885,-1.29215 c -0.09301,0.0947 -0.194049,0.28995 -0.224601,0.43395 l -0.05559,0.26182 0.224592,-0.24487 c 0.123536,-0.13468 0.224602,-0.32996 0.224602,-0.43395 0,-0.18809 -9.67e-4,-0.18817 -0.169046,-0.0169 z m -3.877689,0.87797 c -0.228788,0.0878 -0.447918,-0.002 -0.447918,-0.18339 0,-0.13426 0.05879,-0.17336 0.260627,-0.17336 0.285543,0 0.424955,0.26555 0.187291,0.35675 z m -0.878905,-2.66037 c -0.02108,0.0211 -0.05598,0.67237 -0.07764,1.44739 -0.02166,0.77502 -0.06565,1.45164 -0.09782,1.50359 -0.08547,0.13832 -0.276493,0.11543 -0.445298,-0.0534 -0.126919,-0.12692 -0.139962,-0.266 -0.09214,-0.98184 l 0.05579,-0.83399 -0.241396,0.41341 c -0.254942,0.4366 -0.377134,0.52915 -0.590501,0.44727 -0.198196,-0.0761 -0.162925,-0.24346 0.221933,-1.05352 0.194059,-0.40847 0.435223,-0.99364 0.535921,-1.30039 0.149941,-0.45672 0.217215,-0.55772 0.371545,-0.55772 0.103648,0 0.235576,0.0471 0.293181,0.10473 0.09806,0.0981 0.150531,0.7804 0.06652,0.86445 z m -2.57646,2.72642 c -0.411003,0.37131 -0.682091,0.40263 -1.014005,0.11714 -0.222871,-0.19171 -0.234202,-0.23991 -0.224466,-0.95436 0.01025,-0.75062 0.0097,-0.75253 -0.219535,-0.77994 -0.294641,-0.0353 -0.478702,-0.30173 -0.291025,-0.42137 0.07203,-0.0459 0.219274,-0.084 0.327282,-0.0848 0.178463,-9.7e-4 0.196418,-0.0431 0.196891,-0.45953 2.9e-4,-0.252 0.02572,-0.78138 0.05647,-1.17639 0.0582,-0.74837 0.152068,-0.89087 0.4989,-0.75777 0.12748,0.0489 0.137497,0.17821 0.08702,1.12312 l -0.05704,1.06784 0.280979,0.0562 c 0.339107,0.0678 0.342771,0.32754 0.0058,0.4071 -0.151739,0.0359 -0.23428,0.12938 -0.272858,0.30929 -0.07532,0.35119 -0.08895,1.21952 -0.02021,1.28824 0.03065,0.0306 0.173532,-0.0433 0.317498,-0.16449 0.282903,-0.23805 0.612486,-0.25238 0.655115,-0.0284 0.0146,0.0766 -0.132411,0.28272 -0.326634,0.45819 z m -2.069913,0.0472 c -0.369205,0.30433 -0.829769,0.36334 -1.078571,0.13818 -0.132972,-0.12034 -0.174538,-0.11828 -0.416601,0.0207 -0.261265,0.14995 -0.275826,0.14907 -0.513722,-0.0311 -0.212835,-0.16125 -0.242865,-0.23943 -0.229822,-0.59817 0.02301,-0.63315 0.353513,-1.42724 0.675767,-1.62376 0.317759,-0.19376 0.568185,-0.20902 0.788349,-0.0481 0.145909,0.10669 0.15231,0.18407 0.07406,0.89457 -0.117058,1.06261 -0.06642,1.16102 0.419366,0.8151 0.54791,-0.39014 0.803083,0.003 0.281192,0.43264 z m -1.291464,-1.64818 c -0.08769,0 -0.295076,0.50189 -0.343835,0.83213 l -0.05115,0.34607 0.212816,-0.43637 c 0.197288,-0.40454 0.280099,-0.74183 0.182127,-0.74183 z m 17.143901,81.471 c -0.08789,0.28801 -0.256111,0.83784 -0.373749,1.22184 -0.150211,0.49034 -0.259844,0.70738 -0.368229,0.72902 -0.138899,0.0277 -0.149128,-0.025 -0.102255,-0.52693 0.04815,-0.51554 0.03761,-0.56411 -0.139266,-0.64174 -0.302927,-0.13297 -0.243108,-0.41636 0.112126,-0.53118 0.212439,-0.0687 0.337154,-0.18062 0.415741,-0.37321 0.09021,-0.22098 0.09059,-0.28119 0.0019,-0.30601 -0.625771,-0.17535 -0.771061,-0.1996 -0.81078,-0.13534 -0.121921,0.19726 -0.388407,1.74254 -0.399526,2.31668 -0.0097,0.49056 -0.04206,0.64692 -0.13478,0.64692 -0.321201,0 -0.357874,-1.12821 -0.08315,-2.55743 0.125818,-0.65455 0.249431,-0.85878 0.417829,-0.69038 0.07986,0.0799 0.134741,0.0758 0.240003,-0.018 0.101221,-0.0902 0.269078,-0.10676 0.649817,-0.0643 0.700529,0.0782 0.790022,0.22314 0.574228,0.93005 z m -1.199776,-12.74024 c -0.676551,0.6881 -0.943482,0.92054 -3.422434,2.98033 -1.198685,0.996 -2.99308,2.65169 -4.302393,3.96982 -0.326277,0.32847 -0.620976,0.59722 -0.654893,0.59722 -0.03394,0 -0.288269,0.21601 -0.565226,0.48001 -0.276948,0.26401 -0.559223,0.48002 -0.627261,0.48002 -0.299175,0 -0.199366,-0.22556 0.33726,-0.7622 0.316821,-0.31681 0.576027,-0.61513 0.576027,-0.66293 0,-0.11445 -0.467787,-0.85369 -0.920693,-1.45495 -0.592153,-0.78611 -1.38962,-2.00939 -1.735282,-2.66188 -0.360416,-0.68032 -1.40274,-3.01926 -1.72045,-3.86062 -0.113026,-0.2993 -0.258848,-0.54476 -0.324053,-0.54547 -0.159464,-0.002 -0.06004,-0.39257 0.176065,-0.69205 0.09783,-0.12408 0.543598,-0.76365 0.990587,-1.42125 0.446999,-0.65759 0.920383,-1.33678 1.051963,-1.5093 l 0.23925,-0.31367 -2.399573,0.0608 c -1.665282,0.0421 -2.483671,0.0314 -2.674374,-0.035 -0.255957,-0.0892 -0.289285,-0.0767 -0.486002,0.18304 -0.268633,0.35464 -1.904918,3.0396 -1.868535,3.06605 0.01499,0.0109 0.478886,-0.0193 1.030895,-0.0673 1.217345,-0.10559 3.363552,-0.12721 3.456023,-0.0348 0.16923,0.16908 -0.21648,0.26768 -1.308645,0.33452 -0.649131,0.0397 -1.504812,0.11294 -1.901524,0.16269 -0.95843,0.12017 -1.00452,0.11724 -1.19795,-0.0762 -0.09166,-0.0917 -0.238921,-0.18099 -0.327282,-0.19854 -0.341224,-0.0678 -0.186237,-0.50836 0.665519,-1.89175 0.45395,-0.7373 0.967585,-1.5008 1.141407,-1.69667 0.309889,-0.3492 0.321559,-0.35384 0.599966,-0.23852 0.227019,0.0941 0.724091,0.10491 2.480093,0.0542 1.207889,-0.0348 2.353261,-0.0641 2.54527,-0.0651 0.709984,-0.004 1.426466,0.17968 2.192036,0.56079 0.654854,0.32598 1.237871,0.57391 2.63481,1.12044 0.224147,0.0877 0.181625,0.25256 -0.06517,0.25256 -0.24509,0 -1.246892,-0.39705 -2.43964,-0.9669 -1.082081,-0.51698 -1.436928,-0.61235 -1.516926,-0.40768 -0.0235,0.06 -0.39564,0.58116 -0.827082,1.15813 -0.431432,0.57698 -1.00332,1.37051 -1.27086,1.76341 l -0.486427,0.71437 0.202654,0.50573 c 0.111459,0.27816 0.327465,0.81993 0.480007,1.20394 0.570293,1.43566 1.748567,3.66057 2.495824,4.71283 0.40905,0.57602 0.883497,1.29276 1.054322,1.59277 0.170825,0.30001 0.331595,0.54547 0.357275,0.54547 0.04912,0 0.472707,-0.39601 2.334899,-2.18298 1.082439,-1.0387 2.124337,-1.93571 3.974453,-3.42171 0.45601,-0.36627 1.138391,-0.97908 1.516405,-1.36181 l 0.687292,-0.69587 -0.425467,-0.18808 c -0.234009,-0.10344 -0.732039,-0.37256 -1.106736,-0.59801 -0.374706,-0.22546 -0.91259,-0.54851 -1.19531,-0.71789 -0.367281,-0.22002 -0.49364,-0.34095 -0.44258,-0.42356 0.08769,-0.14187 0.162587,-0.10507 1.324106,0.65036 1.090802,0.70944 1.718855,1.02801 2.04109,1.03529 0.16046,0.004 0.270411,0.0569 0.28621,0.1387 0.01412,0.073 -0.282439,0.44615 -0.658973,0.82911 z m 0.379357,-6.36293 c -0.162781,0.0625 -0.398066,-0.10796 -0.398066,-0.28833 0,-0.18745 0.470851,-0.1112 0.507524,0.0822 0.01595,0.0841 -0.03326,0.17691 -0.109458,0.20613 z m -0.834449,0.12088 c -0.09601,0 -0.174615,-0.0295 -0.174702,-0.0654 -8.7e-5,-0.036 -0.166996,-0.17102 -0.370916,-0.30006 -0.483817,-0.30613 -0.973377,-0.81583 -0.899074,-0.93606 0.126117,-0.20407 0.401382,-0.0714 0.997693,0.48064 0.632201,0.58531 0.760494,0.82093 0.446999,0.82093 z m -0.632742,1.28076 c -0.203998,0.19639 -0.462546,0.40407 -0.574547,0.46151 -0.29525,0.15141 -0.50619,-0.0766 -0.631872,-0.68291 -0.05608,-0.27064 -0.155491,-0.56858 -0.22086,-0.66209 -0.113249,-0.16199 -0.123468,-0.15683 -0.216171,0.10909 -0.104353,0.29937 -0.333161,0.36924 -0.51027,0.15584 -0.121534,-0.14645 0.04718,-0.62784 0.290832,-0.82994 0.343428,-0.28482 0.937177,0.25231 1.055946,0.95525 0.03229,0.19089 0.07754,0.34707 0.100699,0.34707 0.02311,0 0.218201,-0.1212 0.433501,-0.26932 0.383438,-0.26382 0.643658,-0.28688 0.643658,-0.0571 0,0.0635 -0.166909,0.27617 -0.370916,0.47256 z m -1.235174,19.17783 c -0.308564,0.0579 -0.524773,0.29742 -0.623489,0.69072 -0.05144,0.20483 -0.03084,0.2236 0.272954,0.24909 0.437108,0.0366 0.478306,0.21596 0.08721,0.37938 -0.587464,0.24546 -0.950404,-0.02 -0.859549,-0.6288 0.03751,-0.25141 0.01837,-0.27962 -0.207585,-0.30546 -0.179797,-0.0206 -0.248937,-0.0762 -0.248937,-0.2003 0,-0.12634 0.115211,-0.21459 0.435242,-0.33342 0.514863,-0.19116 0.455256,-0.14388 0.518556,-0.41133 0.07271,-0.30731 -0.06604,-0.50626 -0.247835,-0.35536 -0.180184,0.14954 -0.400503,0.0575 -0.400503,-0.16724 0,-0.28463 0.352807,-0.39766 0.692688,-0.2219 0.263759,0.13639 0.562558,0.62004 0.472804,0.76527 -0.02243,0.0363 0.05965,0.11169 0.18235,0.1676 0.310846,0.14163 0.278243,0.3057 -0.07387,0.37175 z m -0.973309,-17.89198 c -0.421899,0.51793 -0.588528,0.59097 -0.73288,0.32123 -0.07561,-0.14136 -0.01518,-0.23448 0.396693,-0.61093 0.793947,-0.72562 1.010939,-0.53863 0.336187,0.2897 z m -0.864769,1.58017 c -0.154785,0.36069 -0.509246,0.67135 -0.687815,0.60283 -0.188741,-0.0724 -0.182253,-0.17496 0.02997,-0.47299 l 0.17444,-0.24497 -0.261709,-0.0913 c -0.247197,-0.0862 -0.301361,-0.17252 -0.268236,-0.42761 0.02185,-0.1684 -0.210176,-0.12906 -0.386222,0.0655 -0.191052,0.21112 -0.251616,0.21593 -0.433154,0.0344 -0.114727,-0.11472 -0.120045,-0.16439 -0.0293,-0.27369 0.235566,-0.28385 0.780054,-0.55634 1.057871,-0.52942 0.25032,0.0243 0.279955,0.058 0.303952,0.3459 0.02117,0.25364 0.06981,0.32987 0.23749,0.37195 0.301477,0.0757 0.398211,0.30371 0.262744,0.61938 z M 79.375322,93.041423 c -0.098,0.0524 -0.386957,0.09543 -0.642121,0.09553 -0.255155,8.7e-5 -1.013753,0.05859 -1.685769,0.129975 -1.297681,0.137874 -2.123042,0.165527 -2.349287,0.0787 -0.0759,-0.0291 -0.138048,-0.123468 -0.138048,-0.209625 0,-0.140292 0.120703,-0.161833 1.156394,-0.206377 0.63601,-0.02736 1.719348,-0.07503 2.407404,-0.105948 1.264624,-0.05685 1.641816,0.0087 1.251427,0.217745 z m -0.276938,72.533407 c -0.117367,0 -0.174547,-0.0582 -0.174547,-0.17762 0,-0.15057 0.02659,-0.16339 0.174547,-0.0842 0.09601,0.0513 0.174547,0.13131 0.174547,0.17762 0,0.0463 -0.07851,0.0842 -0.174547,0.0842 z m -0.498842,7.1129 c -0.06449,0.26653 -0.381504,0.56729 -0.597964,0.56729 -0.287013,0 -0.32472,-0.22876 -0.07832,-0.47516 0.252853,-0.25286 0.28739,-0.44718 0.06236,-0.35094 -0.08402,0.036 -0.258934,0.0836 -0.388735,0.10592 -0.196631,0.0338 -0.245457,0.003 -0.292669,-0.18513 -0.04631,-0.18452 -0.08518,-0.21047 -0.213019,-0.14207 -0.110918,0.0594 -0.185985,0.048 -0.258287,-0.0392 -0.149089,-0.17963 0.09675,-0.60711 0.428058,-0.74435 0.225172,-0.0933 0.298596,-0.0882 0.484127,0.0334 0.120287,0.0788 0.218703,0.2013 0.218703,0.2722 0,0.0771 0.08238,0.1289 0.204665,0.1289 0.378352,0 0.551207,0.33247 0.431065,0.82911 z m -0.0816,-6.43651 c -0.06246,0.15138 -0.335404,0.13656 -0.469923,-0.0255 -0.133726,-0.16112 -0.03906,-0.27501 0.262744,-0.31603 0.217776,-0.0296 0.302627,0.11029 0.207179,0.34155 z m -0.746271,-47.24833 c -0.110328,0.0305 -1.476985,0.0954 -3.037024,0.14452 -1.560039,0.049 -2.908035,0.11133 -2.995546,0.1384 -0.294032,0.091 -2.438044,0.0457 -2.537273,-0.0535 -0.06845,-0.0684 -0.06381,-0.1142 0.01653,-0.16385 0.0985,-0.0609 1.967667,-0.14915 6.825376,-0.3223 0.792013,-0.0282 1.536989,-0.0581 1.655497,-0.0664 0.287592,-0.0201 0.347509,0.24725 0.07242,0.32316 z m -0.31656,48.17301 c -0.226235,0.20474 -0.538589,0.18906 -0.538589,-0.0271 0,-0.18943 0.239317,-0.35217 0.517908,-0.35217 0.223122,0 0.233304,0.18679 0.02069,0.37922 z m -0.714026,6.29842 c -0.143095,0.18006 -0.358531,0.42573 -0.478741,0.54595 -0.120219,0.12021 -0.218568,0.25249 -0.218568,0.29395 0,0.12406 -0.319606,0.0852 -0.43414,-0.0529 -0.08576,-0.10338 -0.0699,-0.17465 0.08209,-0.36786 0.200797,-0.25527 1.018374,-0.90031 1.141136,-0.90031 0.182089,0 0.147824,0.17962 -0.09176,0.48112 z m -1.39341,2.42007 c -0.218182,0.27739 -0.454328,0.33994 -0.734504,0.19459 -0.120964,-0.0627 -0.30022,-0.0931 -0.398337,-0.0675 -0.114186,0.0299 -0.180387,0.004 -0.183965,-0.0726 -0.02021,-0.43103 0.02321,-1.81062 0.06178,-1.96756 0.05395,-0.21922 0.246414,-0.31646 0.479727,-0.24241 0.195808,0.0622 0.210176,0.24041 0.03133,0.38884 -0.07203,0.0598 -0.130913,0.22166 -0.130913,0.35977 0,0.23235 0.02465,0.25115 0.32968,0.25115 0.482106,0 0.717623,0.19826 0.717623,0.6041 0,0.19887 -0.06923,0.42044 -0.172449,0.5516 z m -0.355021,-0.67806 c -0.127587,-0.0789 -0.345276,0.12196 -0.345276,0.31852 0,0.2065 0.22407,0.21379 0.342104,0.0111 0.114467,-0.19654 0.115086,-0.26049 0.0029,-0.32965 z m -0.991922,6.58505 c -0.09117,0.0756 -1.153802,0.0768 -4.301783,0.005 -4.527807,-0.10398 -6.299452,-0.036 -9.244489,0.35488 -1.581406,0.20987 -2.858542,0.25792 -3.00476,0.11302 -0.186304,-0.18459 0.0077,-0.29124 0.530342,-0.29124 0.283522,0 0.939044,-0.0587 1.456701,-0.13046 2.411146,-0.33423 3.488025,-0.40949 6.52679,-0.45616 3.060567,-0.047 8.032752,0.10191 8.120069,0.2432 0.02098,0.034 -0.01624,0.10703 -0.08286,0.1623 z M 70.174544,92.974372 c -0.06004,0.0068 -1.77823,0.0048 -3.818276,-0.0039 -3.264884,-0.01402 -4.726767,-0.06807 -6.208344,-0.229474 -0.325629,-0.03548 -0.415615,-0.01528 -0.461164,0.103386 -0.107109,0.279123 -0.37724,3.653059 -0.335201,4.186679 0.04883,0.619641 -0.0786,0.796915 -0.340508,0.473539 -0.202964,-0.250649 -0.212313,-1.081192 -0.02949,-2.622454 0.07116,-0.600014 0.129743,-1.310898 0.130159,-1.579743 3.29e-4,-0.268845 0.0439,-0.612487 0.09659,-0.763655 0.114815,-0.329361 0.163197,-0.333132 1.911502,-0.148674 0.648019,0.06836 2.611703,0.14761 4.36374,0.176094 4.019296,0.06536 4.800113,0.109758 4.800113,0.273167 0,0.06749 -0.04912,0.128225 -0.109091,0.134906 z M 68.56479,159.57855 c -0.03867,0.023 -0.168476,0.0416 -0.288473,0.0412 -0.120006,-3.3e-4 -0.462468,0.10217 -0.761025,0.22801 -0.625645,0.26371 -1.071745,0.3015 -1.071745,0.0908 0,-0.0759 0.1339,-0.36652 0.297561,-0.64576 0.16366,-0.27924 0.382625,-0.74101 0.486592,-1.02612 0.204926,-0.56205 0.212216,-1.1306 0.01392,-1.08889 -0.188189,0.0395 -0.361731,-0.15701 -0.361731,-0.40979 0,-0.31187 0.44345,-0.84275 0.640729,-0.76704 0.253259,0.0972 0.338691,0.49426 0.294786,1.37013 -0.03452,0.68849 -0.08789,0.9307 -0.314762,1.42807 l -0.273206,0.59897 0.328056,-0.0705 c 0.57797,-0.1241 1.0191,-0.0971 1.050997,0.0644 0.01566,0.0796 -0.0029,0.16348 -0.04177,0.18655 z m -2.328751,0.23615 c -0.255415,0 -0.313523,-0.2389 -0.309859,-1.27398 0.0029,-0.91593 -0.116333,-2.12931 -0.22756,-2.3093 -0.02127,-0.0344 0.02185,-0.11265 0.09572,-0.17397 0.360242,-0.29897 0.560276,0.59681 0.561291,2.51358 6.58e-4,0.99849 -0.02301,1.24367 -0.119571,1.24367 z m -1.230436,10.08024 c -0.203495,0.43679 -0.445074,0.68745 -0.603823,0.62652 -0.258684,-0.0993 -0.250784,-0.30978 0.02572,-0.68575 0.300404,-0.4085 0.329284,-0.50806 0.147388,-0.50806 -0.167682,0 -0.578182,-0.5012 -0.524676,-0.64061 0.04892,-0.12749 -0.271591,-0.45623 -0.338237,-0.34692 -0.13303,0.21818 -0.333431,1.69432 -0.286055,2.10698 0.04738,0.41243 0.03606,0.46155 -0.100244,0.43531 -0.0845,-0.0162 -0.209625,-0.14646 -0.278088,-0.28929 -0.105166,-0.21943 -0.107873,-0.41103 -0.0175,-1.23531 0.05888,-0.53658 0.145879,-1.11634 0.193372,-1.28835 0.08924,-0.32316 0.3043,-0.42 0.396896,-0.17871 0.04583,0.11937 0.07532,0.11839 0.269647,-0.009 0.268691,-0.17604 0.745111,-0.19867 0.931212,-0.0442 0.177062,0.14695 0.178357,0.51602 0.0019,0.71035 -0.124454,0.13752 -0.116971,0.16958 0.08731,0.37383 0.251528,0.25152 0.282478,0.56988 0.09456,0.97317 z m -1.589885,4.71628 c -2.040404,2.28792 -3.452039,4.05173 -5.043859,6.30215 -0.516148,0.7297 -0.639587,0.81895 -0.824509,0.59614 -0.08257,-0.0995 -0.0029,-0.26026 0.403877,-0.81731 0.278668,-0.3814 0.68823,-0.94421 0.910134,-1.25071 1.228715,-1.6971 2.416339,-3.15148 3.875882,-4.74644 0.39533,-0.43201 0.982862,-1.10948 1.305629,-1.50549 0.322767,-0.39601 0.633641,-0.72002 0.690831,-0.72002 0.107969,0 0.313446,0.17103 0.313446,0.26091 0,0.0283 -0.734146,0.87464 -1.631431,1.88077 z m 0.911411,-14.36689 c -0.652351,0.25507 -1.490532,0.43392 -1.645345,0.35106 -0.226071,-0.121 -0.216084,-0.15802 0.188799,-0.69947 l 0.354412,-0.47395 -0.310768,-0.0271 c -0.238902,-0.0208 -0.310778,-0.0658 -0.310778,-0.1947 0,-0.16506 0.128476,-0.2234 0.61093,-0.27742 0.16803,-0.0189 0.218181,-0.0745 0.218181,-0.24263 0,-0.20616 -0.0263,-0.21819 -0.477812,-0.21819 -0.545077,0 -0.70458,-0.196 -0.306949,-0.37717 0.564801,-0.25734 1.210141,-0.0287 1.30208,0.46138 0.03345,0.17817 0.109342,0.30853 0.179691,0.30853 0.252544,0 0.218849,0.18076 -0.06488,0.34818 -0.161978,0.0955 -0.397612,0.33124 -0.523623,0.52372 -0.12602,0.19247 -0.221614,0.34949 -0.212438,0.34892 0.0087,-6.7e-4 0.230528,-0.0579 0.49188,-0.1275 0.344193,-0.0916 0.506587,-0.1004 0.589108,-0.0319 0.166078,0.13784 0.140108,0.24122 -0.08247,0.32825 z M 63.74826,89.383965 c -0.210718,0.777153 -0.321829,0.960025 -0.583336,0.960025 -0.318223,0 -0.333296,-0.157927 -0.08547,-0.896125 0.163738,-0.487752 0.222214,-0.844011 0.222214,-1.35372 0,-0.64799 -0.02746,-0.749916 -0.433637,-1.61106 -0.470609,-0.997723 -0.757409,-1.397326 -1.147702,-1.599148 -0.445268,-0.230258 -0.272113,-0.651741 0.217293,-0.528902 0.493572,0.123874 1.399916,1.476299 1.842245,2.748938 0.175959,0.506268 0.161244,1.568818 -0.03162,2.279992 z m -0.156574,39.535465 c -0.09582,0.59223 -0.321896,1.50861 -0.522191,2.11641 -0.230973,0.70088 -0.395833,0.84039 -0.642256,0.54346 -0.08953,-0.10791 -0.0845,-0.19411 0.02707,-0.45819 0.89741,-2.12407 0.801855,-4.14724 -0.244964,-5.18708 -0.340673,-0.33839 -0.364371,-0.59287 -0.05521,-0.59287 0.230036,0 0.774678,0.62535 1.02959,1.18216 0.34925,0.76284 0.514805,1.73532 0.407919,2.39611 z M 62.1089,171.10224 c -0.116139,0.11614 -0.802204,0.0581 -0.939817,-0.0796 -0.210022,-0.21003 -0.315796,-0.44677 -0.262106,-0.58667 0.03587,-0.0935 -0.0048,-0.11598 -0.156545,-0.0869 -0.153605,0.0294 -0.235314,-0.0176 -0.326218,-0.18745 -0.158575,-0.2963 -0.04921,-0.404 0.469787,-0.4625 0.424162,-0.0478 0.481458,-0.10826 0.269416,-0.28425 -0.202644,-0.16818 -0.156448,-0.49088 0.09905,-0.69185 0.30693,-0.24144 0.505832,-0.22795 0.723734,0.049 0.256923,0.32661 0.227811,0.53237 -0.168215,1.18898 -0.192009,0.31835 -0.349104,0.60061 -0.349104,0.62723 0,0.0266 0.09495,0.0484 0.211056,0.0484 0.116071,0 0.273167,0.0239 0.349094,0.053 0.139112,0.0534 0.187755,0.30461 0.07986,0.41249 z M 61.847074,88.976685 c -0.129376,0.129366 -0.346822,0.04486 -0.563853,-0.219226 l -0.229301,-0.278987 -0.145812,0.281984 c -0.284634,0.550405 -0.858833,0.58351 -1.17751,0.06787 -0.144517,-0.233835 -0.181364,-0.435039 -0.179846,-0.981982 0.0029,-0.925633 0.201107,-1.372874 0.710691,-1.601014 0.242585,-0.108617 0.418254,-0.139238 0.51172,-0.08924 0.07861,0.04206 0.230422,0.379367 0.339175,0.753667 0.218481,0.751918 0.447772,1.249077 0.655628,1.421584 0.137245,0.113906 0.188924,0.535486 0.07909,0.645312 z M 60.424088,86.82748 c -0.223645,-0.248386 -0.488332,1.364424 -0.275401,1.678122 0.133205,0.196263 0.344696,-0.03452 0.380837,-0.415586 0.03896,-0.411051 -0.02465,-1.172811 -0.105436,-1.262536 z m 1.140411,42.18676 c -0.248937,0.77099 -1.205316,1.28883 -1.705203,0.9233 -0.142805,-0.10443 -0.157172,-0.24206 -0.138879,-1.33095 0.01121,-0.66796 0.02784,-1.69513 0.03684,-2.28261 0.01692,-1.09531 0.08344,-1.31875 0.360958,-1.21226 0.127558,0.0489 0.141239,0.20491 0.11496,1.31051 l -0.02978,1.25497 0.480017,-0.0425 c 0.424558,-0.0377 0.502613,-0.0183 0.675729,0.16785 0.218105,0.23453 0.322323,0.84952 0.205352,1.21178 z m -0.553807,-0.90485 c -0.320611,-0.11496 -0.763656,0.55681 -0.763656,1.1579 v 0.35482 l 0.265684,-0.13739 c 0.146122,-0.0755 0.342346,-0.26313 0.436044,-0.4168 0.191206,-0.31358 0.229001,-0.89863 0.06198,-0.95853 z m 0.31186,-8.53225 c -0.678368,-0.008 -2.434544,-0.23071 -2.624648,-0.33298 -0.107998,-0.0581 -0.202596,-0.19263 -0.210205,-0.29895 -0.02862,-0.39898 0.03142,-1.17878 0.149254,-1.93879 0.100563,-0.64877 0.188441,-3.00345 0.123768,-3.31644 -0.05994,-0.2903 0.124599,-0.38715 0.478779,-0.25124 0.121651,0.0467 0.134413,0.17119 0.09175,0.89457 -0.100215,1.69737 -0.126349,1.99283 -0.255763,2.8913 -0.07261,0.50401 -0.133243,1.12257 -0.134761,1.37457 l -0.0029,0.4582 0.545464,0.007 c 0.300007,0.004 0.898571,0.0528 1.330148,0.10909 0.628711,0.0821 0.790447,0.13277 0.813691,0.25514 0.02359,0.12439 -0.03287,0.15201 -0.304668,0.14884 z m -1.78055,-15.83649 c -0.03655,0.81602 -0.136028,1.83714 -0.221169,2.26915 -0.08518,0.43201 -0.158749,1.08003 -0.163574,1.44004 -0.0077,0.6043 -0.02349,0.65669 -0.200488,0.68233 -0.135467,0.0196 -0.221101,-0.0367 -0.291856,-0.19199 -0.08044,-0.17657 -0.05057,-0.51662 0.151893,-1.72964 0.221237,-1.32545 0.252013,-1.73105 0.252013,-3.32085 0,-1.80843 2.7e-4,-1.81097 0.192269,-1.81095 0.147824,3e-5 0.21328,0.0757 0.283155,0.32732 0.04999,0.18001 0.08489,0.44509 0.07754,0.5891 -0.0077,0.144 -0.04322,0.92948 -0.07977,1.74549 z m -4.214215,79.24581 c -0.242479,0.15888 -0.527432,0.0818 -0.794759,-0.21489 -0.246192,-0.27326 -0.289111,-1.23789 -0.08895,-1.99859 0.168949,-0.64198 0.308273,-0.84857 0.518005,-0.76808 0.220473,0.0846 0.256527,0.30228 0.107882,0.65135 -0.07551,0.17742 -0.162191,0.45002 -0.192531,0.60578 -0.04747,0.24395 -0.02601,0.29427 0.15462,0.36296 0.500534,0.19031 0.697696,1.09808 0.295695,1.36147 z m -0.427691,-0.75387 c -0.04796,0.048 -0.06033,0.15754 -0.02736,0.24342 0.04844,0.12629 0.07416,0.13309 0.134423,0.0356 0.09987,-0.1616 0.01,-0.39601 -0.10707,-0.27902 z m -0.948335,-0.94829 c -0.0351,0.36 -0.04129,0.98204 -0.01354,1.3823 l 0.05028,0.72774 -0.208997,-0.0296 -0.208996,-0.0296 -0.02369,-1.72367 c -0.01856,-1.34901 3.28e-4,-1.72339 0.08731,-1.72235 0.330531,0.004 0.416553,0.38177 0.317633,1.39506 z m -1.669062,2.25145 c -0.224302,0.18616 -0.886465,0.31119 -1.159671,0.21899 -0.235808,-0.0796 -0.258026,-0.12165 -0.258026,-0.48831 0,-0.22066 -0.04912,-0.45059 -0.109101,-0.51094 -0.188808,-0.18988 -0.124386,-0.33663 0.147785,-0.33663 0.273592,0 0.528592,-0.26198 0.528592,-0.54306 0,-0.17627 -0.361016,-0.21264 -0.727543,-0.0733 -0.170061,0.0647 -0.247081,0.0467 -0.366827,-0.0857 -0.311686,-0.34441 0.252438,-0.57702 1.016635,-0.4192 0.569064,0.11753 0.705701,0.39846 0.471035,0.96846 -0.04747,0.11527 -0.0204,0.15272 0.110328,0.15272 0.09524,0 0.218066,0.054 0.272906,0.12015 0.07948,0.0958 0.03916,0.14886 -0.198874,0.26182 -0.164211,0.0779 -0.340354,0.14169 -0.391404,0.14169 -0.05105,0 -0.136192,0.081 -0.189185,0.18002 -0.09272,0.17332 -0.07774,0.17901 0.402378,0.15273 0.506103,-0.0277 0.678339,0.0717 0.450972,0.26048 z"
       id="path1" /></g></svg>
